<svg width="20" height="20" viewBox="0 0 20 20" fill="none" xmlns="http://www.w3.org/2000/svg">
<path d="M12.7092 1.66777L12.7092 1.66776L10.9908 3.34647C10.9102 3.4385 10.8661 3.55701 10.867 3.67958C10.868 3.80598 10.9168 3.92732 11.0036 4.01919C11.0904 4.11107 11.2088 4.16666 11.3349 4.17478C11.4543 4.18246 11.5723 4.14706 11.6675 4.0754L13.3763 2.37654C13.3764 2.37642 13.3765 2.37629 13.3767 2.37616C13.9345 1.8185 14.691 1.50522 15.4798 1.50522C16.2688 1.50522 17.0255 1.81864 17.5834 2.37654C18.1413 2.93444 18.4547 3.69111 18.4547 4.48009C18.4547 5.2689 18.1414 6.0254 17.5838 6.58326C17.5836 6.58339 17.5835 6.58352 17.5834 6.58365M12.7092 1.66777L17.2298 6.23009L17.5834 6.58365M12.7092 1.66777L12.7123 1.66475C13.4598 0.92185 14.4709 0.504883 15.5248 0.504883C16.5777 0.504883 17.5878 0.921016 18.3351 1.66252C19.072 2.41452 19.4817 3.42731 19.4751 4.48018C19.4684 5.5341 19.0451 6.54257 18.2974 7.2854L18.2963 7.28654L13.7463 11.8365L13.746 11.8368C13.0364 12.5475 12.0838 12.9628 11.0801 12.999C10.0764 13.0353 9.09631 12.6898 8.33723 12.0322L8.33145 12.0272L8.32552 12.0224C8.2596 11.9687 8.19677 11.9113 8.13734 11.8505L8.13742 11.8505L8.12962 11.8428C8.03475 11.7499 7.98066 11.6232 7.97925 11.4904C7.97784 11.3576 8.02924 11.2298 8.12212 11.1349C8.215 11.04 8.34177 10.9859 8.47453 10.9845C8.60729 10.9831 8.73518 11.0345 8.83005 11.1274L8.84436 11.1414L8.85975 11.1542L8.97257 11.2482C9.53556 11.7525 10.2703 12.0225 11.0261 12.0024C11.7853 11.9822 12.5078 11.671 13.044 11.1331M12.7092 1.66777L13.044 11.1331M17.5834 6.58365L13.044 11.1331M17.5834 6.58365L13.044 11.1331M11.1296 8.87281L11.1153 8.8588L11.0999 8.84598L10.9871 8.75196C10.4241 8.24766 9.6894 7.97773 8.93358 7.9978C8.17443 8.01795 7.45206 8.32912 6.91589 8.86693C6.91586 8.86697 6.91582 8.86701 6.91578 8.86705C6.91576 8.86707 6.91573 8.86709 6.91571 8.86712L2.37628 13.4165C2.37618 13.4166 2.37608 13.4167 2.37598 13.4168C2.37595 13.4169 2.37592 13.4169 2.37589 13.4169C1.81824 13.9748 1.50496 14.7313 1.50496 15.5201C1.50496 16.3091 1.81839 17.0658 2.37628 17.6236C2.93418 18.1815 3.69085 18.495 4.47984 18.495C5.26758 18.495 6.02311 18.1825 6.58075 17.6263L8.33024 15.9262C8.42584 15.8536 8.54459 15.8177 8.66479 15.8254C8.79092 15.8335 8.9093 15.8891 8.99611 15.981C9.08292 16.0729 9.13171 16.1942 9.13266 16.3206C9.13359 16.4432 9.08945 16.5617 9.00888 16.6537L7.29609 18.3269C6.54092 19.0181 5.54836 19.3918 4.52467 19.3701C3.4985 19.3484 2.5204 18.9311 1.79462 18.2053C1.06885 17.4795 0.651524 16.5014 0.629799 15.4753C0.608156 14.453 0.980804 13.4617 1.6702 12.7069L6.26145 8.16558L6.26146 8.16559L6.26439 8.16265C6.97278 7.45025 7.92546 7.03373 8.92945 6.99746C9.92529 6.96149 10.8978 7.30228 11.6531 7.9513C11.6992 8.00086 11.7429 8.05248 11.7843 8.10599L11.8054 8.13326L11.8301 8.15738C11.9249 8.25026 11.979 8.37703 11.9804 8.50979C11.9818 8.64255 11.9304 8.77044 11.8376 8.86531C11.7447 8.96018 11.6179 9.01427 11.4851 9.01568C11.3524 9.01709 11.2245 8.9657 11.1296 8.87281Z" fill="#3F4647" stroke="#3F4647"/>
</svg>
