<svg width="24" height="24" viewBox="0 0 24 24" fill="none" xmlns="http://www.w3.org/2000/svg">
<path d="M4.29688 10.5013L4.29688 10.5006C4.2967 10.4466 4.31804 10.3948 4.35606 10.3566C4.39423 10.3184 4.44605 10.2969 4.5 10.2969H5.98786C6.95344 10.2969 7.72844 11.0711 7.72844 12.0079C7.72844 12.9447 6.95344 13.719 5.98786 13.719C5.80666 13.719 5.49834 13.7202 5.21096 13.7217L4.71349 13.7242V14.2217V15.8434C4.71349 15.9556 4.62253 16.0465 4.51036 16.0465C4.39819 16.0465 4.30724 15.9556 4.30724 15.8434L4.30724 15.8425L4.29688 10.5013ZM4.70965 12.818L4.71216 13.3181L5.21224 13.3155C5.50089 13.314 5.80795 13.3127 5.98786 13.3127C6.69915 13.3127 7.32214 12.7371 7.32214 12.0079C7.32214 11.2787 6.69906 10.7031 5.98782 10.7031H5.20519H4.70384L4.70519 11.2045C4.70604 11.5176 4.70683 11.8497 4.70683 12.0079C4.70683 12.1952 4.70815 12.5187 4.70965 12.818Z" fill="#3F4647" stroke="#3F4647"/>
<path d="M11.9686 9.79688H10.5C10.3133 9.79688 10.1342 9.87112 10.0023 10.0033C9.87042 10.1354 9.7965 10.3146 9.79688 10.5013C9.79688 10.5014 9.80733 15.6691 9.80738 15.6878C9.80808 15.8744 9.8828 16.053 10.0152 16.1843C10.1469 16.3151 10.325 16.3884 10.5105 16.3884H10.5132C10.5576 16.3882 11.6051 16.3843 12.0239 16.377C13.6126 16.3492 14.7658 14.9679 14.7658 13.0927C14.7657 11.1214 13.6417 9.79688 11.9686 9.79688ZM11.9993 14.9709C11.8172 14.9741 11.5039 14.9767 11.2113 14.9786C11.2093 14.3678 11.2055 11.8378 11.2044 11.2031H11.9686C13.2592 11.2031 13.3595 12.6494 13.3595 13.0927C13.3595 14.0158 12.9389 14.9545 11.9993 14.9709Z" fill="#3F4647"/>
<path d="M19.3998 11.1489C19.7881 11.1489 20.103 10.8341 20.103 10.4458C20.103 10.0575 19.7881 9.74268 19.3998 9.74268H17.25C16.8617 9.74268 16.5469 10.0575 16.5469 10.4458V15.7501C16.5469 16.1384 16.8617 16.4532 17.25 16.4532C17.6383 16.4532 17.9531 16.1384 17.9531 15.7501V13.7509H19.2291C19.6174 13.7509 19.9322 13.436 19.9322 13.0477C19.9322 12.6594 19.6174 12.3446 19.2291 12.3446H17.9531V11.1489H19.3998Z" fill="#3F4647"/>
<path d="M21.4688 6.79688H20.9531V6.5963C20.9531 5.69245 20.6107 4.83347 19.9888 4.1775L17.0683 1.09683C16.4074 0.399797 15.4775 0 14.517 0H5.15625C3.99314 0 3.04688 0.946266 3.04688 2.10938V6.79688H2.53125C1.36814 6.79688 0.421875 7.74314 0.421875 8.90625V17.3438C0.421875 18.5069 1.36814 19.4531 2.53125 19.4531H3.04688V21.8906C3.04688 23.0537 3.99314 24 5.15625 24H18.8438C20.0069 24 20.9531 23.0537 20.9531 21.8906V19.4531H21.4688C22.6319 19.4531 23.5781 18.5069 23.5781 17.3438V8.90625C23.5781 7.74314 22.6319 6.79688 21.4688 6.79688ZM4.45312 2.10938C4.45312 1.72167 4.76855 1.40625 5.15625 1.40625H14.517C15.0933 1.40625 15.6512 1.64611 16.0477 2.06437L18.9683 5.14505C19.3414 5.53861 19.5469 6.054 19.5469 6.5963V6.79688H4.45312V2.10938ZM19.5469 21.8906C19.5469 22.2783 19.2315 22.5938 18.8438 22.5938H5.15625C4.76855 22.5938 4.45312 22.2783 4.45312 21.8906V19.4531H19.5469V21.8906ZM22.1719 17.3438C22.1719 17.7315 21.8565 18.0469 21.4688 18.0469H2.53125C2.14355 18.0469 1.82812 17.7315 1.82812 17.3438V8.90625C1.82812 8.51855 2.14355 8.20312 2.53125 8.20312H21.4688C21.8565 8.20312 22.1719 8.51855 22.1719 8.90625V17.3438Z" fill="#3F4647"/>
</svg>
