<svg width="664" height="363" viewBox="0 0 664 363" fill="none" xmlns="http://www.w3.org/2000/svg">
<path d="M583.621 0H15.6533V378H583.621V0Z" fill="white"/>
<path opacity="0.1" d="M470.535 302.574C470.535 305.628 458.797 308.093 444.317 308.093C429.845 308.093 418.107 305.628 418.107 302.574C418.107 299.527 429.845 297.062 444.317 297.062C458.797 297.062 470.535 299.535 470.535 302.574Z" fill="#3F4647"/>
<path d="M118.107 93.6604C117.759 93.1009 117.781 92.4054 118.122 91.846C118.213 91.6948 118.304 91.536 118.387 91.3773C118.47 91.2185 118.554 91.0597 118.63 90.8934C118.91 90.3037 119.478 89.9031 120.137 89.8804L122.378 89.8123L122.151 82.5321L119.917 82.6001C119.258 82.6228 118.66 82.2599 118.342 81.6853C118.168 81.3678 117.978 81.0579 117.774 80.763C117.403 80.2263 117.35 79.5307 117.66 78.9562L118.713 76.9906L112.283 73.5508L111.231 75.5164C110.92 76.0909 110.314 76.4311 109.656 76.416C109.292 76.4085 108.929 76.4236 108.573 76.4538C107.921 76.5143 107.285 76.2119 106.937 75.6525L105.756 73.7549L99.5609 77.5954L100.742 79.5005C101.083 80.0524 101.068 80.7479 100.727 81.3073C100.636 81.4585 100.545 81.6173 100.462 81.7761C100.379 81.9348 100.296 82.0936 100.22 82.2523C99.9396 82.842 99.364 83.2503 98.7128 83.2654L96.4712 83.3334L96.6984 90.6137L98.9324 90.5457C99.5912 90.523 100.189 90.8859 100.508 91.4604C100.682 91.7779 100.871 92.0879 101.083 92.3827C101.454 92.9195 101.507 93.615 101.197 94.1896L100.144 96.1552L106.573 99.595L107.626 97.6294C107.937 97.0548 108.542 96.7146 109.201 96.7297C109.565 96.7373 109.928 96.7297 110.292 96.6919C110.943 96.639 111.579 96.9414 111.92 97.4933L113.094 99.3909L119.288 95.5504L118.107 93.6604ZM106.596 91.8309C103.688 90.2735 102.598 86.6523 104.15 83.7492C105.71 80.8462 109.33 79.7575 112.238 81.3149C115.146 82.8723 116.236 86.4859 114.676 89.389C113.124 92.292 109.504 93.3882 106.596 91.8309Z" fill="#F8F8F9"/>
<path d="M488.611 187.306C487.907 186.905 487.521 186.134 487.566 185.325C487.574 185.106 487.581 184.887 487.581 184.667C487.581 184.441 487.574 184.221 487.566 184.002C487.529 183.201 487.907 182.43 488.611 182.029L491.004 180.653L486.514 172.881L484.121 174.257C483.416 174.658 482.553 174.62 481.879 174.182C481.508 173.94 481.122 173.713 480.72 173.509C480.001 173.146 479.539 172.42 479.539 171.611V168.859H470.542V171.611C470.542 172.42 470.081 173.138 469.361 173.509C468.96 173.713 468.574 173.932 468.202 174.182C467.521 174.628 466.665 174.665 465.961 174.257L463.568 172.881L459.077 180.653L461.478 182.036C462.174 182.437 462.561 183.208 462.515 184.01C462.508 184.229 462.5 184.448 462.5 184.667C462.5 184.887 462.508 185.106 462.515 185.325C462.553 186.134 462.167 186.905 461.47 187.306L459.077 188.682L463.568 196.453L465.953 195.077C466.658 194.677 467.513 194.715 468.195 195.153C468.566 195.395 468.96 195.622 469.361 195.826C470.081 196.189 470.542 196.915 470.542 197.723V200.468H479.539V197.723C479.539 196.915 480.001 196.189 480.72 195.826C481.122 195.622 481.508 195.395 481.887 195.153C482.568 194.715 483.424 194.669 484.128 195.077L486.514 196.453L491.004 188.682L488.611 187.306ZM475.041 192.023C470.974 192.023 467.672 188.727 467.672 184.667C467.672 180.608 470.974 177.319 475.041 177.319C479.107 177.319 482.402 180.608 482.402 184.667C482.402 188.727 479.107 192.023 475.041 192.023Z" fill="#F8F8F9"/>
<path d="M241.061 42.7966C240.553 42.5093 240.281 41.9575 240.311 41.3753C240.318 41.2166 240.326 41.0578 240.326 40.8991C240.326 40.7403 240.318 40.5815 240.311 40.4228C240.281 39.8482 240.561 39.2963 241.061 39.0015L242.78 38.0111L239.554 32.4243L237.835 33.4147C237.327 33.7019 236.714 33.6793 236.222 33.3617C235.956 33.1879 235.676 33.0291 235.388 32.8779C234.874 32.6133 234.54 32.0917 234.54 31.5171V29.5439H228.081V31.5171C228.081 32.0917 227.747 32.6133 227.232 32.8779C226.945 33.0215 226.665 33.1879 226.399 33.3617C225.915 33.6793 225.294 33.7095 224.786 33.4147L223.067 32.4243L219.841 38.0111L221.568 39.0091C222.068 39.2963 222.348 39.8482 222.318 40.4228C222.31 40.5815 222.303 40.7403 222.303 40.8991C222.303 41.0578 222.31 41.2166 222.318 41.3753C222.348 41.9575 222.068 42.5093 221.568 42.7966L219.849 43.787L223.075 49.3738L224.786 48.3835C225.286 48.0962 225.907 48.1189 226.399 48.4364C226.672 48.6103 226.945 48.769 227.232 48.9202C227.747 49.1848 228.081 49.7065 228.081 50.281V52.2542H234.54V50.281C234.54 49.6989 234.874 49.1773 235.388 48.9202C235.676 48.7766 235.956 48.6103 236.222 48.4364C236.706 48.1189 237.327 48.0886 237.835 48.3835L239.546 49.3738L242.772 43.787L241.061 42.7966ZM231.307 46.1835C228.384 46.1835 226.013 43.8172 226.013 40.8991C226.013 37.9809 228.384 35.6222 231.307 35.6222C234.23 35.6222 236.593 37.9809 236.593 40.8991C236.593 43.8172 234.23 46.1835 231.307 46.1835Z" fill="#F8F8F9"/>
<path d="M98.1978 62.4831C97.6904 62.1959 97.4178 61.644 97.4481 61.0619C97.4556 60.9031 97.4632 60.7443 97.4632 60.5856C97.4632 60.4268 97.4556 60.2681 97.4481 60.1093C97.4178 59.5347 97.698 58.9829 98.1978 58.688L99.9168 57.6977L96.6908 52.1108L94.9717 53.1012C94.4643 53.3885 93.8509 53.3658 93.3587 53.0483C93.0936 52.8744 92.8134 52.7156 92.5257 52.5644C92.0107 52.2998 91.6775 51.7782 91.6775 51.2036V49.2305H85.2178V51.2036C85.2178 51.7782 84.8846 52.2998 84.3697 52.5644C84.0819 52.7081 83.8017 52.8744 83.5366 53.0483C83.052 53.3658 82.431 53.396 81.9236 53.1012L80.2046 52.1108L76.9785 57.6977L78.7051 58.6956C79.2049 58.9829 79.4851 59.5347 79.4549 60.1093C79.4473 60.2681 79.4397 60.4268 79.4397 60.5856C79.4397 60.7443 79.4473 60.9031 79.4549 61.0619C79.4851 61.644 79.2049 62.1959 78.7051 62.4831L76.9861 63.4735L80.2121 69.0603L81.9236 68.07C82.4234 67.7827 83.0444 67.8054 83.5366 68.1229C83.8093 68.2968 84.0819 68.4555 84.3697 68.6067C84.8846 68.8713 85.2178 69.393 85.2178 69.9675V71.9407H91.6775V69.9675C91.6775 69.3854 92.0107 68.8638 92.5257 68.6067C92.8134 68.4631 93.0936 68.2968 93.3587 68.1229C93.8434 67.8054 94.4643 67.7751 94.9717 68.07L96.6832 69.0603L99.9093 63.4735L98.1978 62.4831ZM88.4515 65.87C85.5283 65.87 83.158 63.5037 83.158 60.5856C83.158 57.6674 85.5283 55.3087 88.4515 55.3087C91.3746 55.3087 93.7373 57.6674 93.7373 60.5856C93.7373 63.5037 91.3746 65.87 88.4515 65.87Z" fill="#F8F8F9"/>
<path d="M586.897 245.904C586.897 245.904 579.103 240.728 576.407 230.717C573.706 220.71 572.233 199.385 572.233 199.385C572.233 199.385 587.295 217.557 589.053 228.543C590.812 239.529 586.897 245.904 586.897 245.904Z" fill="#F8F8F9"/>
<path d="M597.055 253.034C597.055 253.034 595.789 241.785 601.008 232.576C606.228 223.362 623.826 217.194 623.826 217.194C623.826 217.194 613.279 237.174 608.41 242.88C603.54 248.587 597.055 253.034 597.055 253.034Z" fill="#F8F8F9"/>
<path d="M596.489 279.885C596.489 279.885 597.435 270.352 600.555 264.387C603.674 258.422 614.878 249.998 620.516 247.746C620.516 247.746 613.482 274.786 596.489 279.885Z" fill="#F8F8F9"/>
<path d="M585.532 271.694C585.532 271.694 577.426 266.721 573.036 257.813C568.651 248.906 567.735 236.312 567.735 236.312C567.735 236.312 587.424 252.202 585.532 271.694Z" fill="#F8F8F9"/>
<path d="M593.352 308.658C591.577 301.434 590.842 293.967 590.769 286.518C590.717 282.791 590.941 279.06 591.322 275.351C591.711 271.641 592.311 267.949 593.154 264.313C594.013 260.681 595.111 257.097 596.446 253.616L597.453 251.006C597.798 250.139 598.174 249.285 598.533 248.427L599.077 247.142C599.267 246.715 599.466 246.292 599.665 245.874C600.067 245.032 600.447 244.183 600.866 243.35C602.521 240.007 604.366 236.759 606.435 233.658C606.958 232.886 607.507 232.131 608.056 231.376C608.626 230.639 609.179 229.888 609.784 229.181C610.976 227.753 612.229 226.36 613.668 225.174C612.977 225.795 612.333 226.468 611.728 227.171C611.417 227.516 611.119 227.87 610.825 228.232C610.523 228.586 610.238 228.952 609.957 229.319C609.378 230.044 608.851 230.807 608.311 231.562C607.792 232.33 607.274 233.097 606.777 233.882C604.789 237.01 603.013 240.275 601.436 243.631C601.035 244.467 600.676 245.321 600.291 246.163L599.721 247.431L599.19 248.716C598.84 249.574 598.468 250.424 598.131 251.287L597.15 253.888C595.845 257.356 594.787 260.901 593.957 264.507C592.233 271.706 591.49 279.121 591.399 286.527C591.352 290.232 591.499 293.941 591.823 297.638C592.13 301.326 592.609 305.014 593.352 308.658Z" fill="#CBD5DC"/>
<path d="M579.34 217.937C580.503 221.279 581.544 224.661 582.577 228.047C583.579 231.442 584.534 234.849 585.428 238.274C585.869 239.986 586.314 241.703 586.703 243.428L587.295 246.016L587.848 248.617C588.552 252.09 589.226 255.57 589.671 259.094C590.103 262.614 590.44 266.138 590.725 269.666C591.002 273.195 591.27 276.723 591.434 280.26C591.611 283.793 591.762 287.329 591.879 290.866C591.97 294.403 592.065 297.94 592.065 301.477C591.875 297.945 591.702 294.412 591.473 290.884C591.274 287.355 591.049 283.827 590.799 280.299C590.289 273.251 589.758 266.198 588.85 259.198C587.969 252.206 586.439 245.296 584.81 238.425C583.994 234.987 583.104 231.567 582.188 228.155C581.289 224.734 580.325 221.335 579.34 217.937Z" fill="#CBD5DC"/>
<path d="M608.972 260.013C607.256 262.678 605.571 265.357 603.895 268.04C602.227 270.727 600.581 273.423 599.008 276.166C597.431 278.901 595.927 281.679 594.579 284.525C593.918 285.953 593.292 287.402 592.778 288.886C592.255 290.366 591.849 291.901 591.793 293.484C591.741 292.695 591.758 291.888 591.896 291.103L591.987 290.512L592.112 289.926L592.238 289.339L592.393 288.761C592.821 287.226 593.374 285.725 593.992 284.258C594.61 282.791 595.305 281.359 596.018 279.936C596.744 278.521 597.513 277.132 598.295 275.748C599.094 274.376 599.911 273.013 600.754 271.667C601.605 270.33 602.46 268.993 603.359 267.682C605.13 265.059 606.997 262.493 608.972 260.013Z" fill="#CBD5DC"/>
<path d="M576.113 251.123C578.105 254.595 579.941 258.158 581.656 261.777C583.376 265.396 584.966 269.075 586.409 272.815C587.839 276.559 589.135 280.363 590.112 284.262C590.6 286.212 591.006 288.179 591.283 290.172C591.533 292.16 591.68 294.183 591.486 296.176C591.495 294.174 591.27 292.186 590.885 290.232C590.518 288.274 590.03 286.341 589.494 284.426C588.95 282.511 588.345 280.613 587.692 278.728C587.053 276.839 586.361 274.971 585.64 273.108C584.936 271.24 584.184 269.394 583.419 267.548C582.663 265.702 581.868 263.869 581.073 262.036C579.461 258.391 577.824 254.742 576.113 251.123Z" fill="#CBD5DC"/>
<path d="M601.306 285.107L601.168 287.342L601.159 287.428L601.121 287.997V288.041L601.116 288.088L601.082 288.657L601.077 288.748L601.038 289.317L601.034 289.404L600.732 294.213L600.723 294.351L600.688 294.873L600.68 295.007L600.667 295.201L600.645 295.528L600.637 295.667L600.602 296.188L600.593 296.326L599.496 313.679H583.613L582.529 296.585L582.511 296.365L582.485 295.93L582.468 295.705L582.446 295.27L582.438 295.201L582.429 295.05L582.399 294.614L582.386 294.39L582.049 289.071L582.04 288.916L582.01 288.411L581.997 288.252L581.984 288.041L581.967 287.756L581.954 287.605L581.924 287.092L581.915 286.936L581.798 285.107H601.306Z" fill="#CBD5DC"/>
<g opacity="0.2">
<path d="M601.121 288.041L601.116 288.088L601.082 288.658L601.078 288.748L601.039 289.318L601.034 289.404L600.732 294.213L600.723 294.351L600.689 294.873L600.68 295.007L600.667 295.201H582.438L582.429 295.05L582.399 294.615L582.386 294.39L582.049 289.072L582.041 288.917L582.01 288.412L581.997 288.252L581.984 288.041H601.121Z" fill="#C8CFD3"/>
</g>
<path d="M602.802 284.09H580.304V289.624H602.802V284.09Z" fill="#CBD5DC"/>
<path d="M96.8667 320.869C96.2535 320.718 95.6479 320.559 95.0347 320.393" stroke="#3F4647" stroke-miterlimit="10"/>
<path d="M92.4911 319.652C81.0976 316.092 70.0674 309.57 62.4364 300.524C35.5688 268.661 67.0544 227.82 98.381 214.957C113.658 208.684 127.421 201.195 131.911 183.805C136.203 167.17 124.446 149.788 121.41 133.91C115.301 101.956 144.084 77.2354 174.449 77.2354C202.437 77.2354 215.042 87.884 242.818 106.46C263.811 120.502 303.238 128.733 333.527 125.77C369.601 122.233 383.197 106.46 411.95 93.6202C431.739 84.7854 459.318 82.896 477.828 95.9932C497.602 109.982 490.085 137.378 492.341 157.837C492.909 162.984 494.249 168.009 496.815 172.536C513.016 201.074 546.197 202.54 546.197 244.794C546.197 275.281 497.474 287.358 471.159 291.326" stroke="#3F4647" stroke-miterlimit="10" stroke-dasharray="5 5"/>
<path d="M469.841 291.522C469.205 291.613 468.577 291.704 467.971 291.787" stroke="#3F4647" stroke-miterlimit="10"/>
<path d="M376.898 192.708C376.898 194.628 375.339 196.184 373.416 196.184C371.493 196.184 369.934 194.628 369.934 192.708C369.934 190.788 371.493 189.231 373.416 189.231C375.339 189.224 376.898 190.781 376.898 192.708Z" stroke="#3F4647" stroke-miterlimit="10"/>
<path d="M346.579 228.879C346.579 229.831 345.799 230.61 344.845 230.61C343.891 230.61 343.111 229.831 343.111 228.879C343.111 227.927 343.891 227.148 344.845 227.148C345.806 227.148 346.579 227.927 346.579 228.879Z" stroke="#3F4647" stroke-miterlimit="10"/>
<path d="M398.08 213.688C399.39 211.383 400.465 208.897 401.237 206.244C402.01 203.591 402.441 200.916 402.57 198.271L395.279 197.266C395.34 194.81 395.06 192.391 394.477 190.063L401.381 187.486C399.943 182.264 397.278 177.435 393.637 173.414L387.762 177.858C386.104 176.12 384.211 174.586 382.099 173.323L385.158 166.635C382.849 165.328 380.358 164.254 377.701 163.483C375.044 162.713 372.364 162.282 369.714 162.153L368.707 169.431C366.247 169.371 363.824 169.65 361.492 170.232L358.911 163.34C353.68 164.776 348.842 167.436 344.815 171.071L349.266 176.936C347.525 178.591 345.988 180.48 344.724 182.589L338.024 179.536C336.714 181.841 335.639 184.327 334.867 186.98C334.095 189.633 333.663 192.308 333.535 194.953L340.825 195.958C340.764 198.415 341.045 200.833 341.628 203.161L334.723 205.738C336.162 210.96 338.826 215.789 342.468 219.81L348.343 215.374C350 217.112 351.893 218.646 354.005 219.908L350.947 226.597C353.256 227.904 355.746 228.977 358.404 229.748C361.061 230.519 363.741 230.95 366.39 231.078L367.397 223.8C369.858 223.861 372.28 223.581 374.612 222.999L377.194 229.892C382.425 228.456 387.262 225.796 391.29 222.16L386.846 216.296C388.587 214.641 390.124 212.751 391.388 210.643L398.08 213.688ZM363.181 213.333C353.93 210.65 348.615 200.992 351.303 191.756C353.99 182.521 363.665 177.216 372.916 179.898C382.167 182.581 387.482 192.24 384.794 201.475C382.107 210.703 372.432 216.016 363.181 213.333ZM364.46 208.942C357.639 206.962 353.718 199.843 355.701 193.034C357.684 186.224 364.816 182.309 371.637 184.289C378.458 186.27 382.379 193.389 380.396 200.198C378.412 207.007 371.281 210.922 364.46 208.942Z" fill="#F8F8F9"/>
<path d="M405.462 142.744C405.348 141.444 405.083 140.129 404.652 138.836C404.22 137.544 403.645 136.335 402.956 135.224L399.708 136.856C399.042 135.843 398.247 134.937 397.361 134.151L399.443 131.173C397.392 129.45 394.954 128.233 392.342 127.621L391.199 131.067C390.041 130.825 388.837 130.735 387.626 130.81L386.99 127.235C385.688 127.349 384.37 127.613 383.076 128.044C381.781 128.475 380.57 129.049 379.457 129.737L381.092 132.979C380.078 133.644 379.169 134.438 378.382 135.322L375.399 133.244C373.673 135.292 372.454 137.725 371.841 140.333L375.293 141.474C375.051 142.63 374.96 143.832 375.036 145.041L371.455 145.676C371.569 146.976 371.834 148.291 372.265 149.583C372.697 150.875 373.272 152.085 373.961 153.196L377.209 151.563C377.875 152.576 378.67 153.483 379.556 154.269L377.474 157.246C379.525 158.97 381.963 160.186 384.575 160.799L385.718 157.352C386.876 157.594 388.08 157.685 389.291 157.609L389.927 161.184C391.229 161.071 392.546 160.806 393.841 160.375C395.136 159.945 396.347 159.37 397.46 158.682L395.824 155.44C396.839 154.775 397.747 153.982 398.535 153.097L401.517 155.176C403.244 153.128 404.462 150.694 405.076 148.087L401.623 146.946C401.866 145.789 401.957 144.588 401.881 143.378L405.462 142.744ZM390.745 151.08C386.944 152.342 382.841 150.294 381.577 146.5C380.313 142.706 382.364 138.61 386.165 137.347C389.965 136.085 394.068 138.133 395.332 141.927C396.597 145.721 394.545 149.817 390.745 151.08Z" fill="#F8F8F9"/>
<path d="M226.655 118.258C226.481 116.263 226.08 114.26 225.421 112.273C224.762 110.292 223.877 108.441 222.824 106.74L217.858 109.234C216.836 107.678 215.625 106.294 214.262 105.1L217.449 100.543C214.307 97.9131 210.575 96.0464 206.586 95.1093L204.837 100.392C203.058 100.022 201.218 99.8781 199.363 99.999L198.387 94.5273C196.388 94.7012 194.382 95.1017 192.399 95.7592C190.415 96.4167 188.56 97.301 186.857 98.3515L189.355 103.309C187.796 104.33 186.41 105.539 185.214 106.899L180.649 103.717C178.015 106.854 176.145 110.58 175.206 114.562L180.498 116.308C180.127 118.084 179.983 119.921 180.104 121.772L174.623 122.747C174.797 124.742 175.198 126.745 175.857 128.725C176.516 130.705 177.401 132.557 178.454 134.257L183.42 131.763C184.442 133.32 185.653 134.703 187.016 135.897L183.829 140.455C186.97 143.085 190.703 144.951 194.692 145.889L196.441 140.606C198.22 140.976 200.06 141.12 201.915 140.999L202.891 146.47C204.89 146.297 206.896 145.896 208.879 145.239C210.863 144.581 212.718 143.697 214.421 142.646L211.923 137.689C213.482 136.668 214.868 135.459 216.064 134.099L220.629 137.28C223.263 134.144 225.133 130.418 226.072 126.435L220.78 124.69C221.151 122.914 221.295 121.077 221.174 119.225L226.655 118.258ZM204.133 131.015C198.319 132.942 192.043 129.806 190.105 124.002C188.174 118.198 191.316 111.932 197.13 109.998C202.944 108.071 209.22 111.207 211.158 117.011C213.089 122.815 209.947 129.081 204.133 131.015Z" fill="#F8F8F9"/>
<path d="M176.872 159.568C177.613 158.26 178.219 156.855 178.658 155.351C179.097 153.847 179.34 152.335 179.415 150.831L175.282 150.257C175.312 148.866 175.161 147.498 174.828 146.176L178.741 144.717C177.924 141.755 176.417 139.019 174.351 136.744L171.02 139.261C170.081 138.278 169.006 137.409 167.81 136.691L169.543 132.905C168.234 132.164 166.826 131.559 165.319 131.121C163.812 130.683 162.298 130.441 160.792 130.365L160.216 134.492C158.824 134.461 157.453 134.613 156.128 134.945L154.667 131.038C151.7 131.854 148.959 133.358 146.68 135.421L149.201 138.747C148.217 139.684 147.347 140.757 146.627 141.951L142.835 140.22C142.093 141.528 141.487 142.933 141.048 144.437C140.609 145.941 140.367 147.453 140.291 148.957L144.424 149.531C144.394 150.922 144.546 152.29 144.879 153.612L140.965 155.071C141.782 158.034 143.289 160.769 145.356 163.044L148.687 160.528C149.625 161.51 150.7 162.379 151.897 163.097L150.163 166.883C151.473 167.624 152.881 168.229 154.387 168.667C155.894 169.105 157.408 169.347 158.914 169.423L159.49 165.296C160.883 165.334 162.253 165.175 163.578 164.843L165.039 168.75C168.007 167.934 170.747 166.43 173.026 164.367L170.505 161.041C171.489 160.104 172.36 159.031 173.079 157.837L176.872 159.568ZM157.105 159.371C151.866 157.852 148.853 152.38 150.375 147.151C151.897 141.921 157.378 138.913 162.616 140.432C167.855 141.951 170.868 147.423 169.347 152.653C167.825 157.882 162.344 160.89 157.105 159.371ZM157.824 156.885C153.963 155.766 151.738 151.731 152.858 147.869C153.978 144.014 158.021 141.792 161.89 142.911C165.751 144.029 167.976 148.065 166.856 151.927C165.735 155.789 161.693 158.003 157.824 156.885Z" fill="#F8F8F9"/>
<path d="M265.374 120.133C265.374 100.33 281.453 84.2783 301.29 84.2783C321.127 84.2783 337.206 100.33 337.206 120.133C337.206 128.026 334.651 135.323 330.318 141.245C325.193 148.958 311.869 157.666 311.869 162.88V168.838C311.869 170.028 310.903 170.993 309.71 170.993H303.937H298.633H292.86C291.667 170.993 290.701 170.028 290.701 168.838V162.88C290.701 157.661 277.382 148.958 272.252 141.245C267.929 135.323 265.374 128.031 265.374 120.133Z" fill="#06DCFF"/>
<path d="M305.367 170.402C305.325 169.504 304.683 155.11 305.834 142.496C304.421 142.665 302.904 142.753 301.285 142.753C299.666 142.753 298.155 142.665 296.736 142.496C297.892 155.11 297.245 169.504 297.204 170.402L296.571 170.371C296.582 170.151 297.25 155.264 296.068 142.409C285.417 140.931 280.646 134.906 279.793 129.221C279.294 125.895 280.43 122.59 282.497 121.359C283.751 120.61 285.268 120.461 286.876 120.923C289.411 121.651 291.827 123.832 293.328 126.763C295.06 130.144 296.088 135.758 296.679 141.855C298.108 142.029 299.64 142.122 301.29 142.122C302.935 142.122 304.472 142.029 305.901 141.855C306.492 135.758 307.515 130.144 309.253 126.763C310.754 123.832 313.165 121.651 315.704 120.923C317.318 120.461 318.829 120.615 320.084 121.359C322.15 122.59 323.286 125.9 322.787 129.221C321.929 134.906 317.164 140.931 306.513 142.409C305.331 155.264 305.999 170.151 306.009 170.371L305.367 170.402ZM317.472 121.292C316.958 121.292 316.424 121.369 315.868 121.528C313.499 122.206 311.232 124.269 309.808 127.045C308.142 130.298 307.145 135.774 306.559 141.762C316.763 140.295 321.333 134.552 322.15 129.128C322.608 126.095 321.574 122.991 319.749 121.903C319.071 121.497 318.3 121.292 317.472 121.292ZM285.103 121.292C284.275 121.292 283.504 121.497 282.826 121.903C281.001 122.991 279.968 126.101 280.425 129.128C281.243 134.552 285.807 140.295 296.011 141.762C295.43 135.779 294.433 130.298 292.767 127.045C291.343 124.269 289.077 122.206 286.707 121.528C286.157 121.369 285.617 121.292 285.103 121.292Z" fill="white"/>
<g opacity="0.55">
<g opacity="0.55">
<g opacity="0.55">
<path opacity="0.55" d="M337.134 122.257C335.15 136.959 323.26 152.179 301.29 152.179C279.315 152.179 267.873 136.246 265.446 122.257C265.863 129.333 268.325 135.861 272.262 141.249C277.387 148.962 290.711 157.67 290.711 162.884V168.842C290.711 170.033 291.678 170.997 292.87 170.997H298.643H303.948H309.721C310.913 170.997 311.88 170.033 311.88 168.842V162.884C311.88 157.665 325.198 148.962 330.329 141.249C334.256 135.861 336.718 129.333 337.134 122.257Z" fill="#06DCFF"/>
</g>
</g>
</g>
<path d="M312.718 165.431H289.858V176.31C289.858 178.085 290.367 179.825 291.318 181.323C293.123 184.156 296.248 185.875 299.615 185.875H302.966C306.328 185.875 309.459 184.156 311.263 181.323C312.214 179.825 312.723 178.085 312.723 176.31V165.431H312.718Z" fill="#3F4647"/>
<g opacity="0.1">
<path d="M289.858 172.763C289.925 172.763 289.992 172.763 290.059 172.758L312.918 170.393C313.699 170.31 314.244 169.613 314.136 168.827C314.028 168.042 313.309 167.473 312.527 167.555L289.668 169.92C288.887 170.003 288.342 170.7 288.45 171.486C288.542 172.199 289.154 172.738 289.858 172.763Z" fill="white"/>
</g>
<g opacity="0.1">
<path d="M289.858 177.74C289.925 177.74 289.992 177.74 290.059 177.735L312.918 175.369C313.699 175.287 314.244 174.589 314.136 173.804C314.028 173.019 313.309 172.454 312.527 172.531L289.668 174.897C288.887 174.979 288.342 175.677 288.45 176.462C288.542 177.176 289.154 177.714 289.858 177.74Z" fill="white"/>
</g>
<g opacity="0.1">
<path d="M290.768 182.668C290.835 182.668 290.902 182.668 290.963 182.662L312.63 180.42C313.411 180.338 313.956 179.64 313.848 178.855C313.74 178.07 313.016 177.5 312.239 177.582L290.573 179.825C289.791 179.907 289.247 180.605 289.354 181.39C289.457 182.108 290.069 182.642 290.768 182.668Z" fill="white"/>
</g>
<g opacity="0.4">
<path d="M301.291 69.0576V80.3267" stroke="#06DCFF" stroke-width="3" stroke-miterlimit="10" stroke-linecap="round" stroke-linejoin="round"/>
<path d="M321.641 73.5479L317.082 83.8573" stroke="#06DCFF" stroke-width="3" stroke-miterlimit="10" stroke-linecap="round" stroke-linejoin="round"/>
<path d="M338.795 86.0117L330.458 93.6065" stroke="#06DCFF" stroke-width="3" stroke-miterlimit="10" stroke-linecap="round" stroke-linejoin="round"/>
<path d="M280.934 73.5479L285.494 83.8573" stroke="#06DCFF" stroke-width="3" stroke-miterlimit="10" stroke-linecap="round" stroke-linejoin="round"/>
<path d="M263.781 86.0117L272.118 93.6065" stroke="#06DCFF" stroke-width="3" stroke-miterlimit="10" stroke-linecap="round" stroke-linejoin="round"/>
</g>
<path d="M496.427 313.769L552.717 313.83C553.943 287.136 554.049 253.569 545.659 234.276C537.359 215.18 515.617 224.418 515.678 245.813C515.715 261.507 520.963 295.028 496.427 313.769Z" fill="#CBD5DC"/>
<path d="M377.835 244.21C377.835 244.21 372.549 237.315 369.596 234.903C366.642 232.492 359.789 227.2 356.48 224.153C353.178 221.106 350.118 218.755 348.611 216.759C347.104 214.763 346.65 213.66 346.536 212.662C346.423 211.664 348.218 211.671 348.218 211.671C348.218 211.671 348.445 211.414 348.021 210.507C347.597 209.6 347.4 208.201 348.127 208.073C348.846 207.944 349.929 207.929 349.929 207.929C349.929 207.929 349.429 206.228 350.376 206.054C351.33 205.888 352.216 206.024 353.322 206.644C354.427 207.264 353.64 205.359 354.276 205.109C354.912 204.86 356.919 204.996 359.471 206.493C362.023 207.99 366.059 210.5 366.059 210.5C366.059 210.5 366.203 210.288 366.128 208.995C366.052 207.702 366.968 204.815 369.596 206.508C371.466 207.718 380.561 217.409 383.401 220.033C386.241 222.656 397.964 233.24 397.964 233.24L379.766 246.183L377.835 244.21Z" fill="white"/>
<path d="M380.061 226.618C380.061 226.618 371.36 220.101 364.704 222.059" stroke="#3F4647" stroke-miterlimit="10"/>
<path d="M369.603 215.036C369.603 215.036 362.015 217.788 357.805 221.697" stroke="#3F4647" stroke-miterlimit="10"/>
<path d="M366.976 211.097C366.976 211.097 359.463 206.251 356.873 205.17C354.185 204.044 352.86 205.986 354.427 207.287C355.995 208.587 366.65 216.2 366.65 216.2" stroke="#3F4647" stroke-miterlimit="10"/>
<path d="M355.48 208.095C355.48 208.095 351.754 205.109 350.383 206.069C349.013 207.022 350.792 209.108 355.48 212.427C360.168 215.746 363.288 218.074 363.288 218.074" stroke="#3F4647" stroke-miterlimit="10"/>
<path d="M359.13 220.411C359.13 220.411 350.293 212.639 348.687 211.248C346.665 209.494 347.226 206.644 350.861 208.595" stroke="#3F4647" stroke-miterlimit="10"/>
<path d="M349.717 212.147C349.717 212.147 347.718 211.233 347.036 211.837C346.355 212.442 345.719 214.166 349.929 218.074C354.14 221.983 361.372 228.87 365.287 231.531C369.202 234.185 374.458 238.917 378.858 245.812L398.237 232.998C398.237 232.998 383.591 221.03 377.6 214.173C371.701 207.422 369.149 205.653 367.453 206.077C365.756 206.508 365.302 208.715 367.513 211.973C369.634 215.103 371.906 218.362 371.906 218.362" stroke="#3F4647" stroke-miterlimit="10"/>
<path d="M465.984 204.346C465.984 204.346 473.382 221.507 472.936 235.69C472.489 249.873 471.853 269.324 466.052 284.218C460.251 299.111 454.2 310.126 439.91 310.784C425.62 311.441 411.883 296.215 405.355 288.474C398.827 280.732 382.682 259.723 382.682 259.723L372.67 245.699L392.928 223.178L423.818 250.53C423.818 250.53 425.34 253.849 427.324 249.684C429.308 245.518 451.928 209.948 451.928 209.948C451.928 209.948 463.962 197.565 465.984 204.346Z" fill="white"/>
<path d="M470.967 262.786C461.902 322.494 433.065 316.492 414.42 298.008C395.783 279.531 372.678 245.7 372.678 245.7L392.936 223.179L430.649 256.405" stroke="#3F4647" stroke-miterlimit="10"/>
<path d="M448.877 215.875L425.749 252.685" stroke="#3F4647" stroke-miterlimit="10"/>
<path d="M448.066 228.44C447.286 229.642 447.635 231.245 448.839 232.024C450.043 232.802 451.648 232.455 452.428 231.253C453.208 230.051 452.86 228.448 451.656 227.669C450.452 226.898 448.839 227.238 448.066 228.44Z" fill="#3F4647"/>
<path d="M442.559 237.449C442.878 236.053 442.002 234.663 440.603 234.345C439.205 234.027 437.812 234.901 437.494 236.297C437.175 237.693 438.05 239.083 439.449 239.401C440.848 239.72 442.24 238.846 442.559 237.449Z" fill="#3F4647"/>
<path d="M423.568 265.333C422.788 266.535 423.136 268.138 424.34 268.916C425.544 269.695 427.15 269.347 427.93 268.145C428.71 266.943 428.361 265.34 427.157 264.562C425.953 263.791 424.348 264.131 423.568 265.333Z" fill="#3F4647"/>
<path d="M434.147 259.089C433.367 260.291 433.716 261.894 434.92 262.672C436.124 263.451 437.729 263.103 438.509 261.901C439.289 260.699 438.941 259.096 437.737 258.318C436.533 257.547 434.927 257.887 434.147 259.089Z" fill="#3F4647"/>
<path d="M431.55 275.88C430.77 277.082 431.118 278.685 432.322 279.463C433.526 280.242 435.132 279.894 435.912 278.692C436.692 277.49 436.343 275.887 435.139 275.109C433.935 274.338 432.33 274.678 431.55 275.88Z" fill="#3F4647"/>
<path d="M417.093 274.783C416.313 275.985 416.662 277.588 417.866 278.367C419.07 279.145 420.675 278.797 421.455 277.595C422.235 276.393 421.887 274.791 420.683 274.012C419.479 273.241 417.873 273.581 417.093 274.783Z" fill="#3F4647"/>
<path d="M409.308 285.851C408.528 287.053 408.876 288.656 410.08 289.434C411.285 290.213 412.89 289.865 413.67 288.663C414.45 287.461 414.102 285.858 412.898 285.08C411.694 284.301 410.088 284.649 409.308 285.851Z" fill="#3F4647"/>
<path d="M402.356 275.88C401.576 277.082 401.924 278.685 403.128 279.463C404.332 280.242 405.938 279.894 406.718 278.692C407.498 277.49 407.15 275.887 405.946 275.109C404.741 274.338 403.128 274.678 402.356 275.88Z" fill="#3F4647"/>
<path d="M410.656 265.333C409.876 266.535 410.224 268.138 411.429 268.917C412.633 269.695 414.238 269.348 415.018 268.146C415.798 266.944 415.45 265.341 414.246 264.562C413.042 263.784 411.436 264.131 410.656 265.333Z" fill="#3F4647"/>
<path d="M420.796 255.006C420.016 256.208 420.365 257.811 421.569 258.59C422.773 259.368 424.378 259.021 425.158 257.818C425.938 256.616 425.59 255.014 424.386 254.235C423.182 253.456 421.576 253.804 420.796 255.006Z" fill="#3F4647"/>
<path d="M408.392 249.457C407.612 250.659 407.96 252.262 409.164 253.041C410.368 253.819 411.974 253.472 412.754 252.27C413.534 251.068 413.186 249.465 411.982 248.686C410.777 247.908 409.172 248.255 408.392 249.457Z" fill="#3F4647"/>
<path d="M384.015 251.219C383.235 252.421 383.583 254.023 384.787 254.802C385.991 255.581 387.597 255.233 388.377 254.031C389.157 252.829 388.808 251.226 387.604 250.448C386.4 249.676 384.795 250.024 384.015 251.219Z" fill="#3F4647"/>
<path d="M394.791 260.987C394.011 262.189 394.359 263.791 395.563 264.57C396.767 265.349 398.373 265.001 399.153 263.799C399.933 262.597 399.585 260.994 398.38 260.216C397.176 259.437 395.571 259.785 394.791 260.987Z" fill="#3F4647"/>
<path d="M432.655 247.386C431.875 248.588 432.224 250.19 433.428 250.969C434.632 251.748 436.237 251.4 437.017 250.198C437.797 248.996 437.449 247.393 436.245 246.615C435.041 245.843 433.428 246.184 432.655 247.386Z" fill="#3F4647"/>
<path d="M395.654 249.457C394.874 250.659 395.223 252.262 396.427 253.04C397.631 253.819 399.236 253.471 400.016 252.269C400.796 251.067 400.448 249.464 399.244 248.686C398.04 247.915 396.434 248.255 395.654 249.457Z" fill="#3F4647"/>
<path d="M398.093 237.263C397.313 238.465 397.661 240.068 398.865 240.846C400.069 241.625 401.675 241.277 402.455 240.075C403.235 238.873 402.886 237.271 401.682 236.492C400.478 235.713 398.873 236.061 398.093 237.263Z" fill="#3F4647"/>
<path d="M392.936 223.179L402.841 231.911L380.849 257.206C376.79 250.289 372.686 245.7 372.686 245.7L392.936 223.179Z" fill="#3F4647" stroke="#3F4647" stroke-miterlimit="10"/>
<path d="M399.221 236.076L389.27 227.261" stroke="#3F4647" stroke-miterlimit="10"/>
<path d="M395.237 240.196L386.195 231.298" stroke="#3F4647" stroke-miterlimit="10"/>
<path d="M391.845 243.915L382.455 234.836" stroke="#3F4647" stroke-miterlimit="10"/>
<path d="M388.399 248.278L379.145 238.518" stroke="#3F4647" stroke-miterlimit="10"/>
<path d="M384.492 253.017L375.677 242.365" stroke="#3F4647" stroke-miterlimit="10"/>
<path d="M453.564 142.037L463.878 141.644C470.732 141.386 476.586 147.548 476.881 155.342L477.487 171.301C477.502 171.747 477.495 172.193 477.479 172.64C477.608 173.108 477.691 173.592 477.714 174.091L478.085 183.806L478.108 184.35L478.479 194.065C478.615 197.588 475.836 200.581 472.3 200.717L468.21 200.869C464.681 201.005 461.682 198.23 461.546 194.7L461.22 186.104L455.26 186.331C448.407 186.588 442.553 180.426 442.258 172.632L441.652 156.673C441.341 148.878 446.711 142.294 453.564 142.037Z" fill="white" stroke="black" stroke-miterlimit="10"/>
<path d="M448.581 162.993C448.081 164.089 448.558 165.382 449.656 165.881C450.754 166.38 452.049 165.904 452.549 164.807C453.049 163.711 452.572 162.419 451.474 161.92C450.383 161.421 449.081 161.897 448.581 162.993Z" fill="black"/>
<path d="M449.202 158.6C450.777 159.009 452.352 159.425 453.92 159.833C454.511 159.984 454.761 159.077 454.17 158.918C452.595 158.51 451.02 158.094 449.452 157.686C448.861 157.535 448.611 158.449 449.202 158.6Z" fill="black"/>
<path d="M442.871 175.142C444.235 175.142 445.59 175.142 446.953 175.142C446.802 174.946 446.65 174.742 446.499 174.545C446.105 176.118 445.348 178.098 443.879 178.945C443.348 179.247 443.826 180.064 444.356 179.761C446.044 178.779 446.953 176.616 447.408 174.795C447.483 174.5 447.264 174.197 446.953 174.197C445.59 174.197 444.235 174.197 442.871 174.197C442.266 174.197 442.266 175.142 442.871 175.142Z" fill="black"/>
<path d="M493.42 143.035C480.948 133.101 476.51 138.846 465.613 134.719C462.455 133.524 459.668 129.041 456.116 127.355C435.306 117.505 425.893 140.283 438.562 149.778C443.962 153.823 461.864 160.377 469.437 162.925L469.278 169.661L473.057 164.649L478.479 168.701L478.085 183.806C478.085 183.806 483.053 182.891 488.771 178.007C496.889 171.06 504.553 151.903 493.42 143.035Z" fill="#3F4647"/>
<path d="M504.948 129.945C511.318 123.586 511.318 113.275 504.948 106.916C498.578 100.557 488.25 100.557 481.879 106.916C475.509 113.275 475.509 123.586 481.879 129.945C488.25 136.305 498.578 136.305 504.948 129.945Z" fill="#3F4647"/>
<path d="M486.885 170.266C486.786 174.636 483.136 178.098 478.721 178C474.314 177.902 470.815 174.288 470.906 169.919C471.004 165.549 474.655 162.086 479.07 162.185C483.485 162.283 486.976 165.904 486.885 170.266Z" fill="white"/>
<path d="M475.078 171.06C475.048 170.312 475.215 169.51 475.525 168.83C476.328 167.053 478.1 166.653 479.902 166.857C480.486 166.925 480.478 166.018 479.902 165.949C477.903 165.723 475.896 166.237 474.874 168.097C474.389 168.974 474.132 170.055 474.17 171.06C474.192 171.642 475.101 171.65 475.078 171.06Z" fill="black"/>
<path d="M529.763 313.808C521.819 237.875 489.437 192.485 464.932 196.613C446.847 199.652 433.095 254.001 432.906 313.687L529.763 313.808Z" fill="white" stroke="#3F4647" stroke-miterlimit="10"/>
<path d="M529.748 313.755C529.498 311.366 529.233 309 528.938 306.679H524.167H432.807C432.807 309.06 432.83 311.457 432.853 313.861L529.748 313.755Z" fill="#3F4647" stroke="#3F4647" stroke-miterlimit="10"/>
<path d="M480.766 306.475V313.294" stroke="#3F4647" stroke-miterlimit="10"/>
<path d="M475.397 306.475V313.294" stroke="#3F4647" stroke-miterlimit="10"/>
<path d="M470.021 306.475V313.294" stroke="#3F4647" stroke-miterlimit="10"/>
<path d="M464.651 306.475V313.294" stroke="#3F4647" stroke-miterlimit="10"/>
<path d="M459.282 306.475V313.294" stroke="#3F4647" stroke-miterlimit="10"/>
<path d="M453.905 306.452V313.271" stroke="#3F4647" stroke-miterlimit="10"/>
<path d="M486.143 306.475V313.294" stroke="#3F4647" stroke-miterlimit="10"/>
<path d="M491.512 306.475V313.505" stroke="#3F4647" stroke-miterlimit="10"/>
<path d="M496.889 306.475V313.573" stroke="#3F4647" stroke-miterlimit="10"/>
<path d="M502.258 306.452V313.574" stroke="#3F4647" stroke-miterlimit="10"/>
<path d="M507.635 306.656V313.475" stroke="#3F4647" stroke-miterlimit="10"/>
<path d="M513.004 306.656V313.687" stroke="#3F4647" stroke-miterlimit="10"/>
<path d="M518.381 306.656V313.748" stroke="#3F4647" stroke-miterlimit="10"/>
<path d="M523.75 306.626V313.748" stroke="#3F4647" stroke-miterlimit="10"/>
<path d="M448.536 306.452V313.271" stroke="#3F4647" stroke-miterlimit="10"/>
<path d="M443.159 306.301V313.127" stroke="#3F4647" stroke-miterlimit="10"/>
<path d="M437.79 306.301V313.127" stroke="#3F4647" stroke-miterlimit="10"/>
<path d="M464.379 250.705C465.876 250.705 467.09 249.493 467.09 247.999C467.09 246.504 465.876 245.292 464.379 245.292C462.881 245.292 461.667 246.504 461.667 247.999C461.667 249.493 462.881 250.705 464.379 250.705Z" fill="#3F4647"/>
<path d="M452.27 257.789C453.767 257.789 454.981 256.577 454.981 255.082C454.981 253.588 453.767 252.376 452.27 252.376C450.772 252.376 449.559 253.588 449.559 255.082C449.559 256.577 450.772 257.789 452.27 257.789Z" fill="#3F4647"/>
<path d="M443.523 247.243C445.02 247.243 446.234 246.031 446.234 244.537C446.234 243.042 445.02 241.83 443.523 241.83C442.025 241.83 440.812 243.042 440.812 244.537C440.812 246.031 442.025 247.243 443.523 247.243Z" fill="#3F4647"/>
<path d="M454.981 240.907C456.478 240.907 457.692 239.695 457.692 238.201C457.692 236.706 456.478 235.494 454.981 235.494C453.483 235.494 452.27 236.706 452.27 238.201C452.27 239.695 453.483 240.907 454.981 240.907Z" fill="#3F4647"/>
<path d="M467.711 236.076C469.208 236.076 470.422 234.864 470.422 233.37C470.422 231.875 469.208 230.663 467.711 230.663C466.213 230.663 465 231.875 465 233.37C465 234.864 466.213 236.076 467.711 236.076Z" fill="#3F4647"/>
<path d="M455.602 225.289C457.099 225.289 458.313 224.077 458.313 222.582C458.313 221.088 457.099 219.876 455.602 219.876C454.104 219.876 452.891 221.088 452.891 222.582C452.891 224.077 454.104 225.289 455.602 225.289Z" fill="#3F4647"/>
<path d="M469.415 224.2C469.415 225.696 470.626 226.906 472.126 226.906C473.625 226.906 474.837 225.696 474.837 224.2C474.837 222.703 473.625 221.493 472.126 221.493C470.626 221.493 469.415 222.703 469.415 224.2Z" fill="#3F4647"/>
<path d="M462.289 216.398C462.289 217.895 463.5 219.104 465 219.104C466.499 219.104 467.711 217.895 467.711 216.398C467.711 214.901 466.499 213.691 465 213.691C463.5 213.691 462.289 214.901 462.289 216.398Z" fill="#3F4647"/>
<path d="M447.272 232.107C448.769 232.107 449.983 230.896 449.983 229.401C449.983 227.906 448.769 226.694 447.272 226.694C445.774 226.694 444.561 227.906 444.561 229.401C444.561 230.896 445.774 232.107 447.272 232.107Z" fill="#3F4647"/>
<path d="M440.024 264.562C441.521 264.562 442.735 263.351 442.735 261.856C442.735 260.361 441.521 259.149 440.024 259.149C438.527 259.149 437.313 260.361 437.313 261.856C437.313 263.351 438.527 264.562 440.024 264.562Z" fill="#3F4647"/>
<path d="M446.234 271.457C446.234 272.954 447.446 274.164 448.945 274.164C450.444 274.164 451.656 272.954 451.656 271.457C451.656 269.961 450.444 268.751 448.945 268.751C447.446 268.751 446.234 269.961 446.234 271.457Z" fill="#3F4647"/>
<path d="M524.856 305.009C526.353 305.009 527.567 303.797 527.567 302.302C527.567 300.807 526.353 299.596 524.856 299.596C523.358 299.596 522.145 300.807 522.145 302.302C522.145 303.797 523.358 305.009 524.856 305.009Z" fill="#3F4647"/>
<path d="M473.133 260.495C474.63 260.495 475.844 259.283 475.844 257.789C475.844 256.294 474.63 255.082 473.133 255.082C471.636 255.082 470.422 256.294 470.422 257.789C470.422 259.283 471.636 260.495 473.133 260.495Z" fill="#3F4647"/>
<path d="M458.957 264.563C458.957 266.06 460.168 267.269 461.668 267.269C463.167 267.269 464.379 266.06 464.379 264.563C464.379 263.066 463.167 261.856 461.668 261.856C460.168 261.856 458.957 263.066 458.957 264.563Z" fill="#3F4647"/>
<path d="M387.445 282.909C380.917 282.909 375.624 288.194 375.624 294.71C375.624 301.227 380.917 306.512 387.445 306.512C393.973 306.512 399.266 301.227 399.266 294.71C399.266 288.194 393.973 282.909 387.445 282.909ZM387.445 302.172C383.318 302.172 379.978 298.831 379.978 294.718C379.978 290.598 383.325 287.264 387.445 287.264C391.572 287.264 394.912 290.605 394.912 294.718C394.912 298.831 391.565 302.172 387.445 302.172Z" fill="white" stroke="black" stroke-miterlimit="10"/>
<path d="M383.492 313.648H359.812C357.358 313.648 355.366 311.66 355.366 309.211V280.626C355.366 278.177 357.358 276.188 359.812 276.188H383.492C385.946 276.188 387.937 278.177 387.937 280.626V309.211C387.945 311.668 385.953 313.648 383.492 313.648Z" fill="white" stroke="black" stroke-miterlimit="10"/>
<path d="M426.665 306.006L424.015 289.14L410.058 291.763C410.058 291.763 400.175 293.154 392.496 295.006C384.674 296.896 375.662 300.487 373.647 302.029C371.633 303.579 370.792 304.955 370.792 306.036C370.792 307.117 371.164 306.429 371.164 306.429C371.164 306.429 370.626 308.13 371.164 308.901C371.701 309.673 372.004 309.877 371.58 310.731C371.148 311.578 371.565 313.46 372.406 313.604C373.239 313.755 395.17 313.422 395.17 313.422L427.756 312.878L426.665 306.006Z" fill="white"/>
<path d="M391.08 300.071C391.08 300.071 371.671 308.811 370.785 306.036C369.543 302.12 381.432 298.453 390.209 295.656C398.986 292.859 417.616 290.787 417.616 290.787L424.015 289.132L427.748 312.87L374.458 313.762" stroke="#3F4647" stroke-miterlimit="10"/>
<path d="M393.504 303.737C393.504 303.737 376.2 309.581 373.829 310.073C371.467 310.572 370.035 308.455 372.269 306.557" stroke="#3F4647" stroke-miterlimit="10"/>
<path d="M395.995 307.685C395.995 307.685 377.321 313.46 373.958 313.748C370.596 314.027 370.407 311.132 372.277 310.157" stroke="#3F4647" stroke-miterlimit="10"/>
<path d="M472.027 213.97L472.625 259.353V269.332C472.625 269.332 473.14 270.647 470.967 271.282C468.793 271.917 422.818 281.466 422.818 281.466L422.977 312.961L484.166 313.407C484.166 313.407 506.12 313.921 510.346 312.447C514.572 310.972 522.599 306.64 525.257 299.428C527.915 292.216 529.937 286.659 527.665 277.293C525.393 267.926 519.055 249.426 512.217 238.033C505.378 226.633 490.709 204.943 490.709 204.943L472.027 213.97Z" fill="white"/>
<path d="M493.011 209.033C499.297 217.485 504.962 226.474 510.179 235.614C519.085 251.226 529.18 270.156 527.862 288.693C527.059 299.957 519.827 311.26 507.763 312.356C499.471 313.112 491.005 312.862 482.69 312.961C460.622 313.218 438.555 313.27 416.487 313.286C415.836 313.286 414.935 313.452 414.306 313.286C413.746 313.142 414.662 313.958 414.564 313.664C414.42 313.225 414.602 312.416 414.617 311.963C414.783 306.852 414.942 301.741 415.109 296.631C415.192 293.902 415.283 291.173 415.366 288.443C415.412 287.045 415.041 284.792 415.525 283.461C415.722 282.917 414.889 283.93 415.359 283.666C415.548 283.56 416.01 283.492 416.23 283.484C417.563 283.409 419.009 282.902 420.319 282.622C440.743 278.321 461.167 274.027 481.592 269.725C482.19 269.596 481.932 268.689 481.342 268.81C462 272.877 442.667 276.952 423.326 281.02C420.531 281.609 417.737 282.199 414.95 282.781C414.745 282.826 414.609 283.038 414.602 283.235C414.276 293.41 413.95 303.579 413.625 313.754C413.617 314.011 413.852 314.223 414.094 314.223C439.812 314.223 465.529 314.193 491.239 313.785C500.615 313.633 511.217 314.888 519.07 308.742C535.026 296.245 528.354 272.341 521.796 256.707C514.647 239.697 504.863 223.367 493.844 208.557C493.466 208.073 492.648 208.542 493.011 209.033Z" fill="#3F4647"/>
<path d="M471.837 223.178C471.943 239.009 472.049 254.832 472.155 270.663C472.163 271.267 473.11 271.275 473.102 270.663C472.996 254.832 472.89 239.009 472.784 223.178C472.776 222.573 471.83 222.573 471.837 223.178Z" fill="#3F4647"/>
<path d="M494.177 224.024C495.675 224.024 496.889 222.813 496.889 221.318C496.889 219.823 495.675 218.611 494.177 218.611C492.68 218.611 491.466 219.823 491.466 221.318C491.466 222.813 492.68 224.024 494.177 224.024Z" fill="#3F4647"/>
<path d="M481.447 234.639C482.945 234.639 484.159 233.427 484.159 231.932C484.159 230.437 482.945 229.226 481.447 229.226C479.95 229.226 478.736 230.437 478.736 231.932C478.736 233.427 479.95 234.639 481.447 234.639Z" fill="#3F4647"/>
<path d="M493.42 238.026C493.42 239.523 494.632 240.732 496.132 240.732C497.631 240.732 498.843 239.523 498.843 238.026C498.843 236.529 497.631 235.319 496.132 235.319C494.632 235.319 493.42 236.529 493.42 238.026Z" fill="#3F4647"/>
<path d="M478.736 249.774C478.736 251.271 479.948 252.48 481.447 252.48C482.947 252.48 484.159 251.271 484.159 249.774C484.159 248.277 482.947 247.067 481.447 247.067C479.956 247.067 478.736 248.277 478.736 249.774Z" fill="#3F4647"/>
<path d="M507.635 250.53C507.635 252.027 508.846 253.236 510.346 253.236C511.845 253.236 513.057 252.027 513.057 250.53C513.057 249.033 511.845 247.823 510.346 247.823C508.846 247.823 507.635 249.04 507.635 250.53Z" fill="#3F4647"/>
<path d="M491.512 261.613C493.009 261.613 494.223 260.401 494.223 258.907C494.223 257.412 493.009 256.2 491.512 256.2C490.015 256.2 488.801 257.412 488.801 258.907C488.801 260.401 490.015 261.613 491.512 261.613Z" fill="#3F4647"/>
<path d="M509.505 269.445C511.002 269.445 512.216 268.233 512.216 266.739C512.216 265.244 511.002 264.032 509.505 264.032C508.008 264.032 506.794 265.244 506.794 266.739C506.794 268.233 508.008 269.445 509.505 269.445Z" fill="#3F4647"/>
<path d="M490.709 273.989C490.709 275.486 491.921 276.695 493.421 276.695C494.92 276.695 496.132 275.486 496.132 273.989C496.132 272.492 494.92 271.282 493.421 271.282C491.921 271.282 490.709 272.492 490.709 273.989Z" fill="#3F4647"/>
<path d="M474.556 264.878C474.556 266.375 475.768 267.585 477.267 267.585C478.767 267.585 479.978 266.375 479.978 264.878C479.978 263.381 478.767 262.172 477.267 262.172C475.768 262.172 474.556 263.381 474.556 264.878Z" fill="#3F4647"/>
<path d="M522.546 279.991C524.043 279.991 525.257 278.779 525.257 277.285C525.257 275.79 524.043 274.578 522.546 274.578C521.048 274.578 519.834 275.79 519.834 277.285C519.834 278.779 521.048 279.991 522.546 279.991Z" fill="#3F4647"/>
<path d="M506.794 286.765C508.291 286.765 509.505 285.553 509.505 284.058C509.505 282.563 508.291 281.352 506.794 281.352C505.297 281.352 504.083 282.563 504.083 284.058C504.083 285.553 505.297 286.765 506.794 286.765Z" fill="#3F4647"/>
<path d="M515.669 292.956C515.669 294.453 516.881 295.663 518.381 295.663C519.88 295.663 521.092 294.453 521.092 292.956C521.092 291.46 519.88 290.25 518.381 290.25C516.881 290.25 515.669 291.46 515.669 292.956Z" fill="#3F4647"/>
<path d="M502.258 303.374C503.755 303.374 504.969 302.162 504.969 300.667C504.969 299.173 503.755 297.961 502.258 297.961C500.761 297.961 499.547 299.173 499.547 300.667C499.547 302.162 500.761 303.374 502.258 303.374Z" fill="#3F4647"/>
<path d="M471.255 281.246C472.752 281.246 473.966 280.034 473.966 278.539C473.966 277.045 472.752 275.833 471.255 275.833C469.757 275.833 468.543 277.045 468.543 278.539C468.543 280.034 469.757 281.246 471.255 281.246Z" fill="#3F4647"/>
<path d="M488.801 290.47C490.298 290.47 491.512 289.258 491.512 287.763C491.512 286.268 490.298 285.057 488.801 285.057C487.304 285.057 486.09 286.268 486.09 287.763C486.09 289.258 487.304 290.47 488.801 290.47Z" fill="#3F4647"/>
<path d="M472.027 294.877C473.524 294.877 474.738 293.665 474.738 292.17C474.738 290.676 473.524 289.464 472.027 289.464C470.53 289.464 469.316 290.676 469.316 292.17C469.316 293.665 470.53 294.877 472.027 294.877Z" fill="#3F4647"/>
<path d="M480.667 303.971C480.667 305.468 481.879 306.678 483.379 306.678C484.878 306.678 486.09 305.468 486.09 303.971C486.09 302.474 484.878 301.265 483.379 301.265C481.887 301.265 480.667 302.474 480.667 303.971Z" fill="#3F4647"/>
<path d="M494.223 312.605C495.72 312.605 496.934 311.394 496.934 309.899C496.934 308.404 495.72 307.192 494.223 307.192C492.726 307.192 491.512 308.404 491.512 309.899C491.512 311.394 492.726 312.605 494.223 312.605Z" fill="#3F4647"/>
<path d="M467.362 311.713C468.859 311.713 470.073 310.501 470.073 309.006C470.073 307.512 468.859 306.3 467.362 306.3C465.865 306.3 464.651 307.512 464.651 309.006C464.651 310.501 465.865 311.713 467.362 311.713Z" fill="#3F4647"/>
<path d="M455.139 298.513C455.139 300.01 456.351 301.22 457.85 301.22C459.35 301.22 460.561 300.01 460.561 298.513C460.561 297.016 459.35 295.807 457.85 295.807C456.351 295.807 455.139 297.016 455.139 298.513Z" fill="#3F4647"/>
<path d="M445.241 312.605C446.739 312.605 447.953 311.394 447.953 309.899C447.953 308.404 446.739 307.192 445.241 307.192C443.744 307.192 442.53 308.404 442.53 309.899C442.53 311.394 443.744 312.605 445.241 312.605Z" fill="#3F4647"/>
<path d="M432.807 304.833C434.304 304.833 435.518 303.621 435.518 302.126C435.518 300.632 434.304 299.42 432.807 299.42C431.31 299.42 430.096 300.632 430.096 302.126C430.096 303.621 431.31 304.833 432.807 304.833Z" fill="#3F4647"/>
<path d="M433.618 290.47C435.115 290.47 436.329 289.258 436.329 287.763C436.329 286.268 435.115 285.057 433.618 285.057C432.121 285.057 430.907 286.268 430.907 287.763C430.907 289.258 432.121 290.47 433.618 290.47Z" fill="#3F4647"/>
<path d="M459.918 286.765C461.415 286.765 462.629 285.553 462.629 284.058C462.629 282.563 461.415 281.352 459.918 281.352C458.42 281.352 457.207 282.563 457.207 284.058C457.207 285.553 458.42 286.765 459.918 286.765Z" fill="#3F4647"/>
<path d="M443.908 285.056C445.406 285.056 446.62 283.845 446.62 282.35C446.62 280.855 445.406 279.644 443.908 279.644C442.411 279.644 441.197 280.855 441.197 282.35C441.197 283.845 442.411 285.056 443.908 285.056Z" fill="#3F4647"/>
<path d="M440.448 294.71C440.448 296.207 441.659 297.417 443.159 297.417C444.658 297.417 445.87 296.207 445.87 294.71C445.87 293.213 444.658 292.004 443.159 292.004C441.659 292.004 440.448 293.221 440.448 294.71Z" fill="#3F4647"/>
<path d="M414.943 282.917L427.938 280.521L429.846 313.86C421.834 313.739 414.095 313.747 414.095 313.747L414.943 282.917Z" fill="#3F4647"/>
<path d="M415.064 283.371C417.941 282.841 420.811 282.312 423.689 281.775C425.007 281.534 426.393 281.133 427.733 281.027C428.377 280.974 427.415 280.468 427.468 280.649C427.529 280.876 427.551 281.299 427.521 281.526C427.112 284.096 427.854 287.347 428.006 289.94C428.233 293.955 428.468 297.961 428.695 301.976C428.877 305.204 429.066 308.424 429.248 311.653C429.263 311.932 429.551 313.444 429.361 313.663C429.392 313.626 427.377 313.391 426.87 313.346C424.651 313.157 422.341 313.301 420.115 313.293C418.676 313.285 415.525 313.898 414.185 313.278C414.942 313.626 414.503 313.437 414.609 312.34C414.905 309.18 414.783 305.922 414.874 302.754C415.056 296.139 415.238 289.532 415.427 282.917C415.442 282.312 414.496 282.312 414.48 282.917C414.193 293.191 413.912 303.473 413.625 313.747C413.617 314.004 413.844 314.223 414.094 314.215C419.342 314.215 424.598 314.253 429.846 314.329C430.088 314.329 430.331 314.11 430.315 313.86C429.679 302.747 429.043 291.634 428.407 280.52C428.392 280.195 428.119 280.006 427.809 280.067C423.477 280.868 419.145 281.67 414.814 282.463C414.215 282.569 414.465 283.484 415.064 283.371Z" fill="#3F4647"/>
<path d="M428.18 286.871C423.818 287.014 419.456 287.15 415.094 287.294C414.488 287.317 414.481 288.262 415.094 288.239C419.456 288.095 423.818 287.959 428.18 287.816C428.786 287.793 428.786 286.848 428.18 286.871Z" fill="#3F4647"/>
<path d="M428.446 292.586C423.879 292.549 419.313 292.518 414.746 292.481C414.14 292.473 414.133 293.418 414.746 293.426C419.313 293.463 423.879 293.494 428.446 293.531C429.051 293.539 429.051 292.594 428.446 292.586Z" fill="#3F4647"/>
<path d="M428.968 298.188C424.151 298.089 419.327 297.991 414.511 297.893C413.905 297.878 413.905 298.823 414.511 298.838C419.327 298.936 424.151 299.034 428.968 299.133C429.574 299.14 429.574 298.195 428.968 298.188Z" fill="#3F4647"/>
<path d="M428.961 303.722C424.197 303.586 419.426 303.449 414.663 303.306C414.057 303.291 414.057 304.236 414.663 304.251C419.426 304.387 424.197 304.523 428.961 304.667C429.566 304.682 429.566 303.737 428.961 303.722Z" fill="#3F4647"/>
<path d="M429.354 309.997C424.295 309.808 419.244 309.611 414.185 309.422C413.579 309.4 413.579 310.345 414.185 310.367C419.244 310.556 424.295 310.753 429.354 310.942C429.967 310.964 429.967 310.019 429.354 309.997Z" fill="#3F4647"/>
<path d="M448.491 215.384C448.491 215.384 494.019 225.341 502.758 206.547C511.497 187.752 461.895 170.841 448.491 215.384Z" fill="#3F4647" stroke="#3F4647" stroke-miterlimit="10"/>
<path d="M451.232 210.584C450.914 211.846 451.687 213.131 452.959 213.449C454.231 213.766 455.511 212.995 455.829 211.725C456.147 210.455 455.375 209.177 454.102 208.86C452.83 208.55 451.55 209.314 451.232 210.584Z" stroke="#3F4647" stroke-miterlimit="10"/>
<path d="M452.679 210.81C451.702 220.676 446.673 230.587 439.252 237.096C438.79 237.497 439.464 238.162 439.918 237.762C447.536 231.078 452.625 220.918 453.625 210.803C453.686 210.205 452.739 210.213 452.679 210.81Z" fill="#3F4647"/>
<path d="M149.845 313.642C133.457 295.392 127.793 251.982 123.378 232.432C119.682 216.072 77.3041 207.038 64.7104 226.664C52.3741 245.874 53.9341 285.171 55.2594 313.642H149.845Z" fill="#CBD5DC"/>
<path d="M192.564 251.959L207.899 231.835C207.899 231.835 210.565 228.901 215.162 225.567C219.758 222.233 227.77 216.798 229.565 215.717C231.36 214.636 233.98 212.738 235.48 213.35C236.979 213.963 236.646 215.611 235.714 216.624C234.791 217.637 226.506 225.333 226.506 225.333C226.506 225.333 232.223 232.644 232.466 235.494C232.708 238.351 232.095 242.509 231.92 244.445C231.739 246.38 231.451 247.514 230.406 247.695C229.361 247.884 228.588 246.637 228.656 246.236C228.725 245.836 228.149 247.854 226.475 247.673C224.802 247.491 224.294 245.994 224.294 245.994C224.294 245.994 223.242 246.849 222.439 246.622C221.629 246.395 221.076 247.96 220.425 248.92C219.781 249.88 211.178 262.687 211.178 262.687L192.564 251.959Z" fill="white"/>
<path d="M221.553 246.395C220.099 248.558 218.645 250.727 217.191 252.89C215.313 255.679 212.601 258.65 211.253 261.727C210.776 262.816 211.428 262.256 210.958 262.022C209.807 261.447 208.717 260.729 207.603 260.087C204.12 258.076 200.636 256.065 197.153 254.061C196.093 253.449 194.82 252.383 193.639 252.035C193.503 251.997 192.965 251.733 192.874 251.589C193.238 252.103 192.813 252.323 193.306 251.733C195.646 248.936 197.653 245.798 199.841 242.88C202.545 239.274 205.188 235.547 208.209 232.19C211.882 228.1 216.668 224.94 221.159 221.825C223.749 220.034 226.369 218.287 229.027 216.602C230.474 215.687 232.571 213.88 234.321 213.872C236.82 213.857 235.865 215.626 234.942 216.775C232.488 219.83 229.103 222.385 226.18 224.978C226.043 225.099 225.983 225.394 226.104 225.553C228.944 229.234 232.003 233.634 231.912 238.427C231.882 240.151 231.784 241.897 231.556 243.606C231.481 244.173 231.299 246.343 230.807 246.645C229.633 247.356 229.315 245.828 229.156 245.193C228.505 242.653 229.398 239.44 229.322 236.825C229.307 236.22 228.361 236.212 228.376 236.825C228.444 239.1 226.717 246.584 229.285 248.006C231.655 249.314 232.336 245.027 232.511 243.697C233.238 238.223 232.798 234.254 229.959 229.522C229.232 228.312 227.46 226.626 227.096 225.296C226.998 224.933 226.733 225.999 227.278 225.265C227.8 224.555 228.747 223.95 229.398 223.36C231.594 221.372 236.047 218.537 236.865 215.483C237.425 213.396 235.956 212.602 234.071 212.95C231.496 213.434 229.065 215.43 226.929 216.813C224.203 218.582 221.507 220.397 218.857 222.272C214.934 225.046 210.776 227.904 207.55 231.502C201.924 237.762 197.107 244.891 192.17 251.695C192.018 251.899 192.132 252.224 192.336 252.345C198.546 255.921 204.748 259.504 210.951 263.08C211.185 263.216 211.458 263.126 211.602 262.914C215.199 257.562 218.789 252.209 222.386 246.857C222.711 246.365 221.893 245.897 221.553 246.395Z" fill="#3F4647"/>
<path d="M210.193 232.575C213.033 230.526 215.948 228.523 218.993 226.792C219.69 226.399 220.719 225.597 221.53 225.514C221.749 225.416 221.977 225.34 222.204 225.28C222.582 226.149 222.961 227.019 223.34 227.888C223.302 228.47 221.711 229.823 221.189 230.322C219.538 231.91 217.842 233.46 216.145 234.994C216.002 235.123 215.956 235.403 216.07 235.569C217.077 237.028 217.456 238.737 217.365 240.491C217.334 241.095 218.281 241.095 218.311 240.491C218.372 239.304 218.289 238.245 217.895 237.126C217.705 236.582 216.986 235.72 216.963 235.199C216.994 235.887 217.562 234.987 218.023 234.564C218.894 233.762 219.765 232.961 220.629 232.152C222.037 230.829 227.035 226.565 223.794 224.584C221.764 223.337 218.455 225.975 216.857 226.951C214.411 228.455 212.033 230.073 209.708 231.751C209.224 232.114 209.693 232.931 210.193 232.575Z" fill="#3F4647"/>
<path d="M224.673 231.457C224.332 235.69 223.878 239.962 223.84 244.218C223.825 245.662 223.976 247.575 225.65 248.081C227.528 248.648 228.679 246.766 229.118 245.269C229.292 244.687 228.376 244.437 228.202 245.019C228.012 246.577 226.99 247.076 225.135 246.531C224.862 245.911 224.741 245.269 224.771 244.619C224.741 244.029 224.809 243.409 224.832 242.812C224.908 241.209 225.014 239.606 225.12 238.004C225.271 235.826 225.43 233.642 225.612 231.464C225.665 230.852 224.718 230.859 224.673 231.457Z" fill="#3F4647"/>
<path d="M220.508 231.177C220.25 235.176 219.932 239.244 220.144 243.251C220.212 244.619 220.417 246.524 221.886 247.129C223.438 247.764 224.37 246.373 224.756 245.08C224.93 244.498 224.021 244.248 223.84 244.831C221.939 245.685 221.03 245.367 221.121 243.886C221.098 243.598 221.083 243.319 221.076 243.031C221.045 242.51 221.053 241.988 221.053 241.466C221.053 239.932 221.098 238.389 221.159 236.855C221.235 234.965 221.325 233.067 221.447 231.177C221.492 230.572 220.545 230.572 220.508 231.177Z" fill="#3F4647"/>
<path d="M161.257 283.991L180.962 259.36L192.556 244.868L219.902 262.195C219.902 262.195 198.425 309.891 195.328 312.318C192.223 314.745 142.56 314.246 141.083 311.517C139.614 308.788 136.979 210.976 136.979 210.976C136.979 210.976 139.409 207.212 142.878 209.147C146.339 211.082 161.962 216.253 180.97 259.376" fill="#3F4647"/>
<path d="M161.257 283.991L180.962 259.36L192.556 244.868L219.902 262.195C219.902 262.195 198.425 309.891 195.328 312.318C192.223 314.745 142.56 314.246 141.083 311.517C139.614 308.788 136.979 210.976 136.979 210.976C136.979 210.976 139.409 207.212 142.878 209.147C146.339 211.082 161.962 216.253 180.97 259.376" stroke="#3F4647" stroke-miterlimit="10"/>
<path d="M188.595 249.819L217.009 268.644C218.788 264.698 219.909 262.18 219.909 262.18L192.563 244.853L188.595 249.819Z" fill="black" stroke="#3F4647" stroke-miterlimit="10"/>
<path d="M182.143 276.083C180.939 273.407 179.728 270.731 178.523 268.047C178.274 267.495 177.456 267.971 177.706 268.523C178.91 271.2 180.121 273.876 181.325 276.56C181.575 277.111 182.393 276.635 182.143 276.083Z" fill="white"/>
<path d="M180.326 285.464C177.403 285.797 174.48 286.122 171.557 286.455C170.958 286.523 170.951 287.468 171.557 287.4C174.48 287.067 177.403 286.742 180.326 286.409C180.924 286.341 180.932 285.396 180.326 285.464Z" fill="white"/>
<path d="M200.379 294.862C197.456 295.195 194.533 295.52 191.61 295.852C191.011 295.92 191.004 296.865 191.61 296.797C194.533 296.465 197.456 296.14 200.379 295.807C200.977 295.739 200.985 294.794 200.379 294.862Z" fill="white"/>
<path d="M192.889 283.348C191.352 280.845 189.807 278.343 188.27 275.841C187.952 275.327 187.134 275.795 187.452 276.317C188.989 278.819 190.534 281.322 192.071 283.824C192.39 284.338 193.207 283.862 192.889 283.348Z" fill="white"/>
<path d="M205.945 268.621C203.181 269.619 200.41 270.617 197.645 271.615C197.077 271.819 197.32 272.734 197.895 272.53C200.659 271.532 203.431 270.534 206.195 269.536C206.763 269.332 206.521 268.417 205.945 268.621Z" fill="white"/>
<path d="M191.269 259.111C189.262 261.258 187.255 263.405 185.241 265.552C184.824 265.998 185.491 266.663 185.907 266.217C187.914 264.07 189.921 261.923 191.935 259.776C192.359 259.337 191.685 258.665 191.269 259.111Z" fill="white"/>
<path d="M184.612 298.658C184.733 295.724 184.862 292.791 184.983 289.858C185.006 289.253 184.059 289.253 184.037 289.858C183.915 292.791 183.787 295.724 183.665 298.658C183.643 299.263 184.589 299.263 184.612 298.658Z" fill="white"/>
<path d="M202.023 289.131C202.144 286.198 202.272 283.265 202.394 280.332C202.416 279.727 201.47 279.727 201.447 280.332C201.326 283.265 201.197 286.198 201.076 289.131C201.046 289.736 201.992 289.736 202.023 289.131Z" fill="white"/>
<path d="M174.737 310.013C176.509 307.669 178.289 305.325 180.061 302.989C180.432 302.506 179.606 302.037 179.243 302.513C177.471 304.857 175.691 307.2 173.919 309.536C173.556 310.02 174.374 310.489 174.737 310.013Z" fill="white"/>
<path d="M184.9 307.661C187.52 306.33 190.14 304.992 192.761 303.662C193.306 303.382 192.829 302.573 192.284 302.845C189.663 304.176 187.043 305.514 184.423 306.844C183.878 307.117 184.362 307.933 184.9 307.661Z" fill="white"/>
<path d="M166.581 256.654C169.216 257.962 171.852 259.262 174.487 260.57C175.032 260.842 175.51 260.025 174.964 259.753C172.329 258.445 169.694 257.145 167.058 255.837C166.52 255.573 166.036 256.389 166.581 256.654Z" fill="white"/>
<path d="M167.664 240.415C168.634 243.19 169.603 245.964 170.572 248.739C170.769 249.306 171.686 249.064 171.489 248.49C170.519 245.715 169.55 242.94 168.581 240.166C168.376 239.591 167.46 239.833 167.664 240.415Z" fill="white"/>
<path d="M157.115 231.645C159.894 232.598 162.681 233.558 165.46 234.511C166.036 234.707 166.286 233.8 165.71 233.596C162.931 232.643 160.144 231.683 157.365 230.731C156.789 230.534 156.539 231.449 157.115 231.645Z" fill="white"/>
<path d="M175.926 314.836C175.934 314.035 175.941 313.241 175.941 312.432C175.941 251.203 154.306 201.564 127.626 201.564C100.939 201.564 79.311 251.203 79.311 312.432C79.311 313.233 79.3186 314.035 79.3262 314.836H175.926Z" fill="#3F4647" stroke="#3F4647" stroke-miterlimit="10"/>
<path d="M116.077 237.633C114.873 234.957 113.662 232.281 112.458 229.597C112.208 229.045 111.39 229.521 111.64 230.073C112.844 232.749 114.055 235.426 115.26 238.109C115.509 238.661 116.327 238.185 116.077 237.633Z" fill="white"/>
<path d="M124.763 221.946C123.052 224.335 121.348 226.724 119.637 229.12C119.281 229.619 120.106 230.088 120.454 229.597C122.166 227.208 123.87 224.819 125.581 222.422C125.937 221.931 125.112 221.455 124.763 221.946Z" fill="white"/>
<path d="M135.919 217.372C133.404 215.852 130.883 214.333 128.368 212.813C127.846 212.496 127.369 213.312 127.891 213.63C130.405 215.149 132.927 216.669 135.441 218.188C135.964 218.506 136.441 217.689 135.919 217.372Z" fill="white"/>
<path d="M135.866 234.269C134.018 231.986 132.17 229.695 130.322 227.412C129.936 226.936 129.277 227.609 129.656 228.077C131.504 230.36 133.351 232.651 135.199 234.934C135.578 235.411 136.244 234.745 135.866 234.269Z" fill="white"/>
<path d="M155.078 228.425C152.193 228.992 149.307 229.567 146.422 230.134C145.824 230.255 146.081 231.162 146.672 231.048C149.557 230.481 152.443 229.907 155.328 229.34C155.926 229.219 155.676 228.304 155.078 228.425Z" fill="white"/>
<path d="M107.694 243.552C104.809 244.119 101.924 244.693 99.0384 245.26C98.4401 245.381 98.6976 246.288 99.2883 246.175C102.174 245.608 105.059 245.034 107.944 244.467C108.542 244.346 108.292 243.438 107.694 243.552Z" fill="white"/>
<path d="M147.914 246.152C146.551 243.552 145.188 240.944 143.825 238.343C143.545 237.806 142.727 238.282 143.007 238.819C144.37 241.42 145.733 244.028 147.096 246.629C147.384 247.173 148.194 246.697 147.914 246.152Z" fill="white"/>
<path d="M136.501 255.384C137.743 252.723 138.985 250.062 140.227 247.393C140.485 246.849 139.667 246.365 139.409 246.917C138.167 249.578 136.925 252.239 135.683 254.907C135.434 255.459 136.244 255.936 136.501 255.384Z" fill="white"/>
<path d="M114.215 255.928C115.457 253.267 116.699 250.605 117.941 247.937C118.198 247.392 117.38 246.909 117.123 247.461C115.881 250.122 114.639 252.783 113.397 255.451C113.147 255.996 113.957 256.472 114.215 255.928Z" fill="white"/>
<path d="M157.07 249.948C158.311 247.287 159.553 244.626 160.795 241.957C161.053 241.413 160.235 240.929 159.978 241.481C158.736 244.142 157.494 246.803 156.252 249.472C155.994 250.024 156.812 250.5 157.07 249.948Z" fill="white"/>
<path d="M148.868 267.374C148.262 264.501 147.664 261.621 147.058 258.748C146.937 258.151 146.021 258.408 146.142 258.998C146.748 261.87 147.346 264.751 147.952 267.624C148.081 268.213 148.989 267.964 148.868 267.374Z" fill="white"/>
<path d="M123.681 266.572C124.438 263.737 125.195 260.895 125.953 258.06C126.112 257.47 125.195 257.221 125.036 257.81C124.279 260.645 123.522 263.488 122.764 266.323C122.613 266.905 123.529 267.162 123.681 266.572Z" fill="white"/>
<path d="M105.112 264.471C104.332 261.636 103.56 258.808 102.78 255.973C102.62 255.391 101.704 255.633 101.863 256.223C102.643 259.058 103.416 261.885 104.196 264.72C104.362 265.31 105.279 265.06 105.112 264.471Z" fill="white"/>
<path d="M114.836 278.17C114.056 275.335 113.283 272.507 112.503 269.672C112.344 269.09 111.428 269.332 111.587 269.922C112.367 272.757 113.139 275.584 113.919 278.419C114.078 279.009 114.995 278.759 114.836 278.17Z" fill="white"/>
<path d="M131.867 277.285C132.208 274.367 132.549 271.449 132.897 268.531C132.965 267.926 132.018 267.934 131.95 268.531C131.609 271.449 131.269 274.367 130.92 277.285C130.845 277.89 131.791 277.882 131.867 277.285Z" fill="white"/>
<path d="M122.265 289.101C122.605 286.183 122.946 283.264 123.294 280.346C123.363 279.741 122.416 279.749 122.348 280.346C122.007 283.264 121.666 286.183 121.318 289.101C121.25 289.706 122.196 289.698 122.265 289.101Z" fill="white"/>
<path d="M139.417 276.589C141.523 278.645 143.628 280.694 145.726 282.751C146.165 283.174 146.831 282.509 146.392 282.085C144.287 280.029 142.181 277.98 140.084 275.924C139.652 275.493 138.978 276.166 139.417 276.589Z" fill="white"/>
<path d="M158.675 264.75C160.78 266.807 162.885 268.855 164.983 270.912C165.422 271.335 166.089 270.67 165.65 270.246C163.544 268.19 161.439 266.141 159.341 264.085C158.91 263.654 158.243 264.327 158.675 264.75Z" fill="white"/>
<path d="M160.432 288.103C160.712 285.177 161 282.259 161.28 279.334C161.341 278.729 160.394 278.736 160.333 279.334C160.053 282.259 159.765 285.177 159.485 288.103C159.425 288.708 160.371 288.708 160.432 288.103Z" fill="white"/>
<path d="M150.928 298.634C151.208 295.709 151.496 292.791 151.776 289.865C151.837 289.26 150.89 289.268 150.829 289.865C150.549 292.791 150.261 295.709 149.981 298.634C149.921 299.239 150.867 299.239 150.928 298.634Z" fill="white"/>
<path d="M135.047 297.455C136.607 294.968 138.175 292.48 139.735 289.993C140.061 289.479 139.243 289.003 138.917 289.517C137.357 292.004 135.789 294.491 134.229 296.979C133.904 297.5 134.722 297.969 135.047 297.455Z" fill="white"/>
<path d="M172.284 297.772C170.746 295.27 169.209 292.768 167.672 290.258C167.354 289.744 166.536 290.212 166.854 290.734C168.391 293.236 169.928 295.739 171.466 298.249C171.784 298.763 172.609 298.286 172.284 297.772Z" fill="white"/>
<path d="M96.1001 278.207C97.4405 275.591 98.7809 272.975 100.114 270.36C100.394 269.823 99.5761 269.339 99.2959 269.883C97.9555 272.499 96.6151 275.115 95.2822 277.731C95.002 278.275 95.8199 278.751 96.1001 278.207Z" fill="white"/>
<path d="M145.597 215.262C143.878 217.644 142.151 220.025 140.432 222.407C140.076 222.898 140.894 223.374 141.25 222.883C142.969 220.501 144.696 218.12 146.415 215.739C146.771 215.247 145.953 214.771 145.597 215.262Z" fill="white"/>
<path d="M141.901 211.105C140.015 208.852 138.13 206.591 136.244 204.339C135.85 203.87 135.184 204.543 135.578 205.004C137.463 207.257 139.349 209.517 141.235 211.77C141.621 212.239 142.287 211.573 141.901 211.105Z" fill="white"/>
<path d="M128.853 247.007C127.49 244.406 126.127 241.798 124.764 239.197C124.483 238.661 123.666 239.137 123.946 239.674C125.309 242.274 126.672 244.883 128.035 247.483C128.323 248.027 129.133 247.551 128.853 247.007Z" fill="white"/>
<path d="M277.91 313.71L216.085 313.823C209.671 313.839 206.346 308.864 208.671 302.718L224.877 259.883C227.202 253.737 234.29 248.747 240.705 248.739L302.53 248.626C308.944 248.611 312.269 253.585 309.944 259.732L293.738 302.567C291.413 308.705 284.332 313.695 277.91 313.71Z" fill="black"/>
<path d="M270.981 277.823C269.906 281.868 265.748 285.156 261.697 285.164C257.645 285.172 255.237 281.898 256.312 277.853C257.388 273.809 261.545 270.52 265.597 270.513C269.648 270.505 272.064 273.779 270.981 277.823Z" stroke="white" stroke-miterlimit="10"/>
<path d="M234.608 313.786L166.52 313.906C165.46 313.906 164.597 313.052 164.597 311.994L164.589 309.756C164.589 308.698 165.445 307.836 166.505 307.836L234.601 307.715C235.661 307.715 236.524 308.569 236.524 309.628V311.865C236.524 312.924 235.669 313.786 234.608 313.786Z" fill="black"/>
<path d="M0.454374 314.223C6.38396 314.223 12.3135 314.223 18.2356 314.223C34.2901 314.223 50.3371 314.223 66.3917 314.223C90.216 314.223 114.048 314.223 137.872 314.223C166.831 314.223 195.79 314.223 224.741 314.223C256.585 314.223 288.422 314.223 320.266 314.223C352.405 314.223 384.545 314.223 416.692 314.223C446.544 314.223 476.389 314.223 506.241 314.223C531.474 314.223 556.707 314.223 581.94 314.223C600.16 314.223 618.381 314.223 636.601 314.223C645.128 314.223 653.936 314.858 662.448 314.223C662.804 314.193 663.175 314.223 663.538 314.223C664.144 314.223 664.151 313.278 663.538 313.278C657.609 313.278 651.679 313.278 645.757 313.278C629.702 313.278 613.655 313.278 597.601 313.278C573.776 313.278 549.944 313.278 526.12 313.278C497.161 313.278 468.203 313.278 439.251 313.278C407.407 313.278 375.571 313.278 343.727 313.278C311.587 313.278 279.448 313.278 247.301 313.278C217.448 313.278 187.604 313.278 157.751 313.278C132.518 313.278 107.285 313.278 82.0524 313.278C63.832 313.278 45.6116 313.278 27.3912 313.278C18.8641 313.278 10.0568 312.643 1.54487 313.278C1.18895 313.309 0.817874 313.278 0.454374 313.278C-0.151458 313.278 -0.151458 314.223 0.454374 314.223Z" fill="#3F4647"/>
<path d="M119.986 309.249L122.742 291.732L137.237 294.462C137.237 294.462 147.498 295.906 155.472 297.833C163.598 299.791 172.958 303.518 175.048 305.129C177.139 306.731 178.017 308.16 178.017 309.294C178.017 310.421 176.851 310.013 176.851 310.013C176.851 310.013 178.191 311.464 177.631 312.258C177.07 313.059 176.76 313.271 177.199 314.155C177.646 315.04 177.214 316.99 176.343 317.142C175.472 317.293 152.701 316.953 152.701 316.953L118.857 316.386L119.986 309.249Z" fill="white"/>
<path d="M156.706 303.503C159.538 304.773 177.941 313.634 178.584 308.826C178.857 306.777 176.093 305.167 174.661 304.343C170.678 302.067 166.134 300.684 161.795 299.277C153.768 296.677 145.597 295.165 137.244 293.985C132.284 293.29 127.725 292.534 122.878 291.279C122.651 291.218 122.333 291.354 122.295 291.612C121 299.829 119.712 308.047 118.418 316.265C118.372 316.567 118.539 316.854 118.872 316.862C137.327 317.127 155.775 317.391 174.23 317.656C174.836 317.663 174.836 316.718 174.23 316.711C165.635 316.59 157.032 316.461 148.437 316.34C142.257 316.25 136.078 316.166 129.89 316.076C126.415 316.023 122.742 315.622 119.273 315.924C118.531 315.993 119.326 316.053 119.341 316.401C119.311 315.841 119.538 315.168 119.622 314.617C120.031 312.001 120.447 309.378 120.856 306.762C121.341 303.677 121.825 300.593 122.31 297.508C122.522 296.14 122.416 293.199 123.181 291.982C123.249 291.876 122.34 292.254 122.984 292.292C123.491 292.322 124.059 292.572 124.552 292.7C125.99 293.071 127.437 293.524 128.891 293.819C130.14 294.076 131.428 294.174 132.7 294.333C140.568 295.331 148.588 296.382 156.237 298.536C161.56 300.033 167.036 301.742 172.049 304.093C173.101 304.584 179.236 307.472 177.191 309.347C176.593 309.899 174.003 308.984 173.306 308.803C167.77 307.359 162.386 305.031 157.176 302.694C156.63 302.437 156.146 303.254 156.706 303.503Z" fill="#3F4647"/>
<path d="M154.298 307.359C159.463 309.105 164.642 310.837 169.837 312.485C171.534 313.021 174.093 314.314 175.964 314.004C178.728 313.543 178.266 311.109 176.805 309.499C176.396 309.045 175.729 309.718 176.138 310.164C176.547 310.617 174.624 312.802 174.298 312.848C174.071 312.878 173.465 312.606 173.283 312.553C172.435 312.303 171.594 312.039 170.754 311.774C168.444 311.048 166.149 310.292 163.847 309.536C160.742 308.516 157.645 307.48 154.555 306.437C153.965 306.248 153.722 307.162 154.298 307.359Z" fill="#3F4647"/>
<path d="M151.708 311.457C157.675 313.302 163.665 315.123 169.709 316.688C171.556 317.165 174.737 318.45 176.661 317.52C178.743 316.515 178.402 314.33 176.698 313.15C176.199 312.803 175.722 313.619 176.221 313.967C176.244 316.084 175.661 317.021 174.464 316.787C174.313 316.772 174.169 316.749 174.025 316.719C173.677 316.741 173.26 316.567 172.92 316.492C171.928 316.28 170.943 316.023 169.959 315.766C167.323 315.086 164.703 314.33 162.09 313.574C158.705 312.591 155.328 311.578 151.958 310.535C151.375 310.361 151.125 311.275 151.708 311.457Z" fill="#3F4647"/>
<path d="M44.6882 285.722C44.6882 285.722 46.0664 269.339 51.7537 259.232C57.4409 249.124 66.3921 236.453 72.4504 230.942C78.5088 225.431 85.1956 218.581 94.9723 213.191C104.749 207.801 110.057 206.463 112.988 204.384C115.926 202.305 122.954 201.995 121.296 204.921C119.645 207.839 110.429 223.465 108.217 228.863C106.014 234.261 92.973 266.157 92.973 266.157L90.4588 272.303C90.4588 272.303 89.0124 274.866 90.118 275.448C91.2237 276.03 130.103 286.765 130.103 286.765L122.901 317.746C122.901 317.746 102.575 320.037 95.4039 319.311C88.2248 318.585 65.4909 317.844 56.6912 310.791C47.8839 303.737 43.7264 294.355 44.6882 285.722Z" fill="#3F4647"/>
<path d="M70.254 270.315C86.3918 274.881 102.53 279.455 118.668 284.021C122.333 285.057 125.998 286.1 129.671 287.136C130.481 287.363 131.284 287.642 132.102 287.824C132.776 287.975 132.571 287.159 132.117 288.202C130.542 291.823 130.216 296.624 129.353 300.464C128.255 305.325 127.157 310.186 126.066 315.047C125.93 315.652 125.173 317.376 125.9 316.862C125.43 317.194 123.931 317.141 123.439 317.209C119.281 317.754 115.108 318.147 110.92 318.419C97.5164 319.311 83.5747 319.289 70.4887 315.947C64.2259 314.352 57.7511 311.88 53.018 307.329C48.2244 302.717 45.8238 296.336 45.2937 289.805C44.0214 274.216 51.3596 258.408 60.1441 245.972C71.6474 229.665 88.5274 215.611 106.755 207.393C112.488 204.807 118.637 202.713 124.923 202.04C127.255 201.791 131.504 201.186 133.533 202.834C134.003 203.212 134.677 202.547 134.2 202.169C132.064 200.438 128.187 200.816 125.68 201.027C119.251 201.579 112.973 203.636 107.096 206.214C87.2324 214.93 68.8757 230.595 57.115 248.769C48.0502 262.77 39.7276 282.842 46.5584 299.428C52.7909 314.556 71.193 318.124 85.7709 319.334C99.1219 320.445 112.92 319.863 126.165 317.776C126.316 317.754 126.46 317.595 126.498 317.444C128.74 307.51 130.981 297.584 133.215 287.65C133.268 287.4 133.139 287.143 132.882 287.068C114.684 281.919 96.4865 276.764 78.2888 271.615C75.6913 270.882 73.0938 270.141 70.4963 269.408C69.9208 269.234 69.6709 270.149 70.254 270.315Z" fill="#3F4647"/>
<path d="M109.686 224.041C102.734 241.051 95.7747 258.068 88.8228 275.078C88.5956 275.638 89.5043 275.887 89.7391 275.328C96.691 258.318 103.651 241.3 110.602 224.29C110.822 223.731 109.913 223.481 109.686 224.041Z" fill="#3F4647"/>
<path d="M59.9168 258.709C62.4158 257.16 64.9149 255.61 67.4139 254.06C67.9289 253.742 67.4594 252.918 66.9369 253.244C64.4378 254.793 61.9387 256.343 59.4397 257.893C58.9247 258.21 59.3942 259.027 59.9168 258.709Z" fill="white"/>
<path d="M76.1684 262.43C77.4482 265.076 78.7204 267.722 80.0003 270.368C80.2653 270.912 81.0832 270.436 80.8181 269.891C79.5383 267.245 78.2661 264.599 76.9863 261.953C76.7212 261.401 75.9033 261.878 76.1684 262.43Z" fill="white"/>
<path d="M84.9528 246.084C82.9763 248.262 81.0073 250.439 79.0308 252.616C78.6218 253.07 79.2883 253.735 79.6972 253.281C81.6737 251.104 83.6427 248.927 85.6192 246.75C86.0282 246.304 85.3617 245.631 84.9528 246.084Z" fill="white"/>
<path d="M63.5971 265.128C62.6505 267.91 61.7039 270.692 60.7649 273.474C60.568 274.049 61.4843 274.298 61.6812 273.724C62.6278 270.941 63.5744 268.159 64.5135 265.377C64.7103 264.795 63.794 264.553 63.5971 265.128Z" fill="white"/>
<path d="M50.4659 272.431C51.0187 275.319 51.5715 278.199 52.1243 281.087C52.2379 281.684 53.1542 281.435 53.0406 280.838C52.4878 277.95 51.935 275.069 51.3822 272.181C51.261 271.577 50.3523 271.834 50.4659 272.431Z" fill="white"/>
<path d="M53.3285 286.53C52.0032 289.154 50.678 291.777 49.3527 294.4C49.0801 294.945 49.898 295.421 50.1706 294.877C51.4959 292.253 52.8211 289.63 54.1464 287.007C54.419 286.462 53.6011 285.986 53.3285 286.53Z" fill="white"/>
<path d="M71.935 276.295C69.6707 278.17 67.4064 280.045 65.1421 281.927C64.6726 282.313 65.3466 282.978 65.8085 282.592C68.0728 280.717 70.3371 278.843 72.6014 276.96C73.0709 276.575 72.4045 275.909 71.935 276.295Z" fill="white"/>
<path d="M68.4287 297.667C66.7324 295.263 65.0436 292.866 63.3473 290.462C62.9989 289.971 62.1811 290.439 62.5294 290.938C64.2257 293.342 65.9145 295.739 67.6108 298.143C67.9592 298.634 68.7846 298.166 68.4287 297.667Z" fill="white"/>
<path d="M62.6279 309.097C60.9316 306.693 59.2428 304.297 57.5465 301.893C57.1981 301.401 56.3803 301.87 56.7286 302.369C58.425 304.773 60.1137 307.17 61.81 309.574C62.1584 310.065 62.9763 309.596 62.6279 309.097Z" fill="white"/>
<path d="M80.4091 305.257C77.4708 305.143 74.5326 305.03 71.5867 304.916C70.9809 304.894 70.9809 305.839 71.5867 305.861C74.525 305.975 77.4633 306.088 80.4091 306.202C81.015 306.224 81.015 305.279 80.4091 305.257Z" fill="white"/>
<path d="M82.7114 290.144C80.0533 288.881 77.3952 287.619 74.7447 286.356C74.1994 286.099 73.7147 286.908 74.2676 287.173C76.9257 288.435 79.5837 289.698 82.2343 290.96C82.7871 291.218 83.2642 290.409 82.7114 290.144Z" fill="white"/>
<path d="M93.4497 278.88C90.5871 279.545 87.717 280.218 84.8544 280.883C84.2637 281.02 84.5136 281.934 85.1043 281.798C87.9669 281.133 90.837 280.46 93.6996 279.795C94.2903 279.651 94.0404 278.744 93.4497 278.88Z" fill="white"/>
<path d="M94.4418 300.229C91.5338 299.76 88.6333 299.299 85.7254 298.831C85.1271 298.732 84.8696 299.647 85.4754 299.745C88.3834 300.214 91.2839 300.675 94.1919 301.144C94.7901 301.242 95.0476 300.327 94.4418 300.229Z" fill="white"/>
<path d="M102.022 285.661C99.3795 286.947 96.7289 288.224 94.086 289.51C93.5407 289.774 94.0178 290.591 94.5631 290.326C97.206 289.041 99.8566 287.763 102.499 286.478C103.045 286.213 102.568 285.397 102.022 285.661Z" fill="white"/>
<path d="M111.019 296.888C108.141 296.283 105.263 295.686 102.378 295.081C101.787 294.96 101.53 295.868 102.128 295.996C105.006 296.601 107.884 297.198 110.769 297.803C111.367 297.924 111.617 297.017 111.019 296.888Z" fill="white"/>
<path d="M117.153 290.923C115.176 288.746 113.207 286.568 111.231 284.391C110.822 283.937 110.156 284.61 110.564 285.056C112.541 287.234 114.51 289.411 116.487 291.588C116.895 292.042 117.562 291.376 117.153 290.923Z" fill="white"/>
<path d="M100.576 316.431C98.5992 314.253 96.6303 312.076 94.6537 309.899C94.2448 309.445 93.5784 310.118 93.9873 310.564C95.9639 312.741 97.9328 314.919 99.9093 317.096C100.318 317.549 100.985 316.877 100.576 316.431Z" fill="white"/>
<path d="M112.087 305.453C109.413 306.678 106.74 307.91 104.067 309.135C103.514 309.392 103.991 310.201 104.544 309.951C107.217 308.727 109.891 307.494 112.564 306.27C113.117 306.02 112.639 305.204 112.087 305.453Z" fill="white"/>
<path d="M122.431 314.298C119.697 313.217 116.964 312.129 114.23 311.048C113.662 310.821 113.419 311.736 113.98 311.962C116.714 313.043 119.447 314.132 122.181 315.213C122.749 315.432 122.992 314.518 122.431 314.298Z" fill="white"/>
<path d="M124.006 302.414C122.181 300.109 120.364 297.803 118.539 295.497C118.16 295.021 117.494 295.694 117.872 296.162C119.697 298.468 121.515 300.774 123.34 303.08C123.711 303.556 124.378 302.883 124.006 302.414Z" fill="white"/>
<path d="M86.3539 309.898C84.135 311.834 81.9237 313.761 79.7049 315.697C79.2429 316.097 79.9169 316.763 80.3713 316.362C82.5902 314.427 84.8014 312.499 87.0203 310.564C87.4898 310.163 86.8158 309.498 86.3539 309.898Z" fill="white"/>
<path d="M88.338 226.989C86.3615 229.166 84.3926 231.343 82.416 233.52C82.0071 233.974 82.6735 234.639 83.0824 234.186C85.059 232.008 87.0279 229.831 89.0045 227.654C89.421 227.208 88.7546 226.535 88.338 226.989Z" fill="white"/>
<path d="M103.037 229.49C101.75 226.852 100.462 224.206 99.1747 221.568C98.9097 221.023 98.0918 221.499 98.3569 222.044C99.6443 224.682 100.932 227.328 102.219 229.967C102.484 230.519 103.302 230.035 103.037 229.49Z" fill="white"/>
<path d="M107.233 210.553C104.582 211.823 101.924 213.093 99.2734 214.355C98.7206 214.62 99.2053 215.436 99.7505 215.172C102.401 213.902 105.059 212.632 107.71 211.369C108.262 211.105 107.778 210.296 107.233 210.553Z" fill="white"/>
<path d="M118.811 220.449C117.607 217.772 116.396 215.096 115.191 212.412C114.942 211.86 114.124 212.337 114.374 212.889C115.578 215.565 116.789 218.241 117.993 220.925C118.243 221.477 119.061 221 118.811 220.449Z" fill="white"/>
<path d="M90.8977 264.093C89.6406 261.439 88.3835 258.786 87.1189 256.132C86.8614 255.581 86.0435 256.064 86.301 256.609C87.5581 259.262 88.8152 261.916 90.0799 264.569C90.3374 265.121 91.1552 264.637 90.8977 264.093Z" fill="white"/>
<path d="M95.4263 246.901C96.1079 244.043 96.797 241.185 97.4785 238.328C97.6224 237.738 96.7061 237.481 96.5622 238.078C95.8807 240.936 95.1915 243.794 94.51 246.651C94.3737 247.241 95.2824 247.491 95.4263 246.901Z" fill="white"/>
<path d="M73.8134 244.989C74.495 242.131 75.1841 239.273 75.8657 236.416C76.0096 235.826 75.0932 235.569 74.9494 236.166C74.2678 239.024 73.5787 241.882 72.8971 244.739C72.7532 245.329 73.6695 245.578 73.8134 244.989Z" fill="white"/>
<path d="M126.043 317.308L132.761 287.514L126.414 285.715L120.038 318.072C123.787 317.671 126.043 317.308 126.043 317.308Z" fill="black" stroke="#3F4647" stroke-miterlimit="10"/>
<path d="M142.128 146.119H131.693C124.756 146.119 119.076 152.575 119.076 160.46V176.609C119.076 177.062 119.099 177.516 119.137 177.954C119.023 178.431 118.955 178.922 118.955 179.436V189.264V189.808V199.636C118.955 203.205 121.878 206.123 125.453 206.123H129.595C133.169 206.123 136.093 203.205 136.093 199.636V190.935H142.128C149.065 190.935 154.745 184.486 154.745 176.593V160.445C154.745 152.568 149.065 146.119 142.128 146.119Z" fill="white" stroke="#3F4647" stroke-width="0.75" stroke-miterlimit="10"/>
<path d="M113.351 176.851C113.351 176.851 103.87 170.395 102.552 159.554C102.552 159.554 100.697 139.769 116.592 134.092C130.89 128.981 143.878 132.028 149.368 134.092C159.667 137.962 167.566 145.817 163.59 154.239C160.629 160.506 142.09 156.658 136.979 152.75C136.979 152.75 136.078 159.365 123.355 161.217L119.001 178.68L118.736 184.396L113.351 176.851Z" fill="#3F4647"/>
<path d="M133.859 165.73C133.859 167.03 134.912 168.081 136.214 168.081C137.517 168.081 138.569 167.03 138.569 165.73C138.569 164.43 137.517 163.379 136.214 163.379C134.912 163.386 133.859 164.437 133.859 165.73Z" fill="#3F4647"/>
<path d="M149.262 165.39C149.262 166.494 150.163 167.394 151.269 167.394C152.375 167.394 153.276 166.494 153.276 165.39C153.276 164.286 152.375 163.387 151.269 163.387C150.163 163.387 149.262 164.279 149.262 165.39Z" fill="#3F4647"/>
<path d="M147.014 174.999C147.014 174.999 145.832 178.439 143.333 178.674C140.834 178.908 138.873 176.141 138.736 173.986L147.014 174.999Z" fill="white"/>
<path d="M146.687 174.909C146.286 176.028 145.544 177.283 144.506 177.91C141.833 179.513 139.349 176.428 139.084 173.987C138.971 174.1 138.857 174.213 138.743 174.327C141.5 174.667 144.257 175 147.021 175.34C147.452 175.393 147.452 174.712 147.021 174.659C144.264 174.319 141.508 173.987 138.743 173.646C138.577 173.624 138.388 173.82 138.403 173.987C138.675 176.444 140.637 179.324 143.431 178.999C145.4 178.772 146.733 176.814 147.354 175.083C147.49 174.674 146.831 174.501 146.687 174.909Z" fill="#3F4647"/>
<path d="M133.859 173.479C137.849 173.479 141.083 169.62 141.083 164.861C141.083 160.101 137.849 156.242 133.859 156.242C129.869 156.242 126.634 160.101 126.634 164.861C126.634 169.62 129.869 173.479 133.859 173.479Z" stroke="#3F4647" stroke-width="0.75" stroke-miterlimit="10"/>
<path d="M145.506 164.045C145.506 168.505 148.391 172.126 151.943 172.126C155.495 172.126 158.38 168.512 158.38 164.045C158.38 159.584 155.495 155.963 151.943 155.963C148.391 155.963 145.506 159.577 145.506 164.045Z" stroke="#3F4647" stroke-width="0.75" stroke-miterlimit="10"/>
<path d="M126.634 164.861L117.297 167.008" stroke="#3F4647" stroke-width="0.75" stroke-miterlimit="10"/>
<path d="M141.333 166.237C143.878 164.846 146.074 166.131 146.135 166.184L146.074 165.269C145.983 165.194 144.037 163.44 140.773 165.224L141.333 166.237Z" fill="#3F4647"/>
<path d="M132.034 161.981C133.472 161.474 134.904 160.975 136.343 160.469C136.911 160.272 136.668 159.357 136.093 159.554C134.654 160.06 133.223 160.559 131.784 161.066C131.208 161.27 131.45 162.185 132.034 161.981Z" fill="#3F4647"/>
<path d="M149.368 161.248C150.67 161.248 151.973 161.248 153.276 161.248C153.881 161.248 153.889 160.303 153.276 160.303C151.973 160.303 150.67 160.303 149.368 160.303C148.762 160.303 148.762 161.248 149.368 161.248Z" fill="#3F4647"/>
<path d="M105.93 171.649C105.93 176.193 109.648 179.874 114.238 179.874C118.827 179.874 122.545 176.193 122.545 171.649C122.545 167.106 118.827 163.424 114.238 163.424C109.648 163.416 105.93 167.098 105.93 171.649Z" fill="white"/>
<path d="M119.046 172.73C119.106 171.717 118.864 170.614 118.394 169.714C117.402 167.809 115.373 167.265 113.351 167.446C112.957 167.484 112.95 168.104 113.351 168.073C115.32 167.892 117.221 168.429 118.023 170.379C118.319 171.105 118.47 171.944 118.425 172.73C118.394 173.131 119.023 173.131 119.046 172.73Z" fill="#3F4647"/>
<path d="M123.022 171.65C122.969 169.268 122.06 167.121 120.379 165.428C119.947 164.997 119.281 165.662 119.713 166.093C121.22 167.62 122.03 169.502 122.083 171.65C122.09 172.254 123.037 172.254 123.022 171.65Z" fill="#3F4647"/>
<path d="M120.379 165.42C114.646 160.453 105.066 164.006 105.483 172.095C105.877 179.776 114.881 182.498 120.379 177.932C120.848 177.538 120.174 176.873 119.712 177.266C114.941 181.228 107.187 179.066 106.498 172.466C105.733 165.125 114.419 161.504 119.712 166.093C120.167 166.486 120.841 165.82 120.379 165.42Z" fill="#3F4647"/>
<path d="M141.371 209.646L113.563 209.11C111.867 209.079 110.519 207.681 110.549 205.987L110.739 196.091C110.769 194.398 112.17 193.052 113.866 193.083L141.674 193.619C143.37 193.65 144.718 195.048 144.688 196.742L144.499 206.638C144.468 208.339 143.067 209.684 141.371 209.646Z" fill="black"/>
<path d="M142.242 193.77C141.947 193.679 141.644 193.619 141.326 193.611H141.189C141.083 198.956 140.985 204.301 140.879 209.638H141.015C141.333 209.646 141.644 209.593 141.939 209.518C142.038 204.271 142.144 199.017 142.242 193.77Z" fill="white"/>
<path d="M136.327 209.548L137.38 209.57C137.486 204.225 137.584 198.881 137.69 193.543L136.638 193.521C136.532 198.865 136.433 204.21 136.327 209.548Z" fill="white"/>
<path d="M131.776 209.465L132.829 209.487C132.935 204.142 133.033 198.798 133.139 193.46L132.087 193.438C131.981 198.775 131.882 204.12 131.776 209.465Z" fill="white"/>
<path d="M127.225 209.374L128.277 209.397C128.383 204.052 128.482 198.707 128.588 193.369L127.535 193.347C127.437 198.692 127.331 204.029 127.225 209.374Z" fill="white"/>
<path d="M122.673 209.291L123.726 209.314C123.832 203.969 123.93 198.624 124.036 193.286L122.984 193.264C122.885 198.601 122.779 203.946 122.673 209.291Z" fill="white"/>
<path d="M118.122 209.2L119.175 209.223C119.281 203.878 119.379 198.533 119.485 193.196L118.433 193.173C118.334 198.51 118.228 203.855 118.122 209.2Z" fill="white"/>
<path d="M113.881 193.12C113.775 198.442 113.677 203.765 113.571 209.079C113.684 209.094 113.798 209.117 113.919 209.117L114.631 209.132C114.737 203.787 114.835 198.442 114.942 193.105L114.23 193.09C114.108 193.09 114.002 193.105 113.881 193.12Z" fill="white"/>
<path d="M463.28 68.502H432.36C428.406 68.502 425.203 71.5411 425.203 75.2908V87.2659V91.4541V104.578L432.473 98.243H463.272C467.225 98.243 470.429 95.2039 470.429 91.4541V75.2908C470.436 71.5411 467.233 68.502 463.28 68.502Z" fill="white" stroke="#CBD5DC" stroke-miterlimit="10"/>
<path d="M472.185 58.8398H441.265C437.312 58.8398 434.109 61.879 434.109 65.6287V77.6038V81.792V94.9162L441.379 88.5809H472.178C476.131 88.5809 479.334 85.5418 479.334 81.792V65.6287C479.342 61.879 476.139 58.8398 472.185 58.8398Z" fill="white" stroke="#CBD5DC" stroke-miterlimit="10"/>
<path d="M449.656 74.2472C449.656 75.8802 448.263 77.1956 446.544 77.1956C444.825 77.1956 443.431 75.8726 443.431 74.2472C443.431 72.6218 444.825 71.2988 446.544 71.2988C448.263 71.2988 449.656 72.6218 449.656 74.2472Z" fill="#CBD5DC"/>
<path d="M457.358 77.1956C459.077 77.1956 460.47 75.8756 460.47 74.2472C460.47 72.6189 459.077 71.2988 457.358 71.2988C455.639 71.2988 454.245 72.6189 454.245 74.2472C454.245 75.8756 455.639 77.1956 457.358 77.1956Z" fill="#CBD5DC"/>
<path d="M471.292 74.2472C471.292 75.8802 469.898 77.1956 468.179 77.1956C466.46 77.1956 465.067 75.8726 465.067 74.2472C465.067 72.6218 466.46 71.2988 468.179 71.2988C469.898 71.2988 471.292 72.6218 471.292 74.2472Z" fill="#CBD5DC"/>
<path d="M97.9484 96.6323C97.9257 96.5718 97.9029 96.5113 97.8802 96.4509C97.8499 96.3904 97.8196 96.3299 97.7969 96.277C96.3505 93.0866 93.132 90.8564 89.3986 90.8564H89.0351H72.405H61.4167C56.3201 90.8564 52.1929 94.9766 52.1929 100.065V122.427C52.1929 127.515 56.3201 131.635 61.4167 131.635H89.391C89.5576 131.635 89.7166 131.62 89.8757 131.612L98.6148 139.225V122.427V121.633V116.016V100.065V99.9587C98.6224 98.7793 98.38 97.6604 97.9484 96.6323Z" fill="white"/>
<path d="M98.4098 96.5038C96.6756 91.9981 92.45 90.418 88.0047 90.3802C83.1504 90.3349 78.2886 90.3802 73.4344 90.3802C65.7403 90.3802 53.0103 88.2786 51.7759 99.0591C51.3367 102.922 51.7229 106.997 51.7229 110.875C51.7229 114.867 51.4654 118.949 51.7532 122.934C52.5635 134.349 66.0357 132.111 73.9191 132.111C78.6824 132.111 84.2864 131.31 88.9967 132.111C90.3825 132.346 91.3292 133.495 92.5257 134.531C94.4492 136.209 96.3727 137.88 98.2962 139.558C98.5992 139.823 99.1065 139.656 99.1065 139.225C99.1065 132.308 99.1065 125.391 99.1065 118.473C99.1065 115.117 99.1065 111.767 99.1065 108.411C99.0914 104.578 99.6745 100.193 98.4098 96.5038C98.2129 95.9293 97.2966 96.1788 97.4935 96.7533C98.8339 100.654 98.1448 105.478 98.1448 109.522C98.1448 112.735 98.1448 115.948 98.1448 119.169C98.1448 125.852 98.1448 132.542 98.1448 139.225C98.4174 139.112 98.6825 139.006 98.9551 138.893C97.7813 137.872 96.6075 136.852 95.4337 135.823C93.9191 134.508 92.2076 132.316 90.3977 131.439C88.9589 130.743 86.6264 131.159 85.0209 131.159C77.1906 131.159 69.2617 131.529 61.4465 131.159C56.4938 130.924 52.927 127.364 52.6695 122.419C52.6165 121.399 52.6695 120.356 52.6695 119.327C52.6695 114.618 52.6695 109.908 52.6695 105.198C52.6695 100.465 52.1621 95.3396 57.0012 92.5046C60.8558 90.2517 67.1565 91.3101 71.4427 91.3101C75.161 91.3101 78.8717 91.3101 82.59 91.3101C88.0122 91.3101 95.0475 90.3954 97.4935 96.7382C97.7131 97.3203 98.6294 97.0784 98.4098 96.5038Z" fill="#CBD5DC"/>
<path d="M76.2567 123.994L75.5165 118.159C78.3613 117.433 80.4659 116.461 81.8303 115.242C83.1947 113.993 83.8768 112.484 83.8768 110.713C83.8768 109.175 83.3253 107.912 82.2222 106.925C81.1191 105.909 79.7257 105.401 78.042 105.401C76.7357 105.401 75.4875 105.807 74.2973 106.62C73.1071 107.404 72.0475 108.565 71.1186 110.104L68.7237 108.057C69.9429 106.199 71.3799 104.762 73.0345 103.746C74.7182 102.73 76.4744 102.222 78.3033 102.222C80.016 102.222 81.569 102.6 82.9624 103.354C84.3558 104.109 85.4589 105.125 86.2717 106.402C87.0845 107.68 87.4909 109.117 87.4909 110.713C87.4909 112.078 87.1426 113.369 86.4459 114.589C85.7492 115.808 84.7913 116.882 83.572 117.811C82.3528 118.74 80.9594 119.465 79.3919 119.988L78.8258 123.994H76.2567ZM75.0375 130.7C75.0375 129.916 75.2552 129.263 75.6907 128.74C76.1551 128.218 76.7647 127.956 77.5195 127.956C79.1451 127.956 79.9579 128.871 79.9579 130.7C79.9579 131.483 79.7257 132.137 79.2612 132.659C78.8258 133.153 78.2452 133.399 77.5195 133.399C75.8648 133.399 75.0375 132.499 75.0375 130.7Z" fill="#CBD5DC"/>
</svg>
